<?xml version="1.0" standalone="no"?>
<!DOCTYPE svg PUBLIC "-//W3C//DTD SVG 1.1//EN" "http://www.w3.org/Graphics/SVG/1.1/DTD/svg11.dtd" >
<svg xmlns="http://www.w3.org/2000/svg">
<metadata></metadata>
<defs>
<font id="rundgrotesklight" horiz-adv-x="942" >
<font-face units-per-em="2048" ascent="1536" descent="-512" />
<missing-glyph horiz-adv-x="552" />
<glyph horiz-adv-x="0" />
<glyph horiz-adv-x="682" />
<glyph horiz-adv-x="0" />
<glyph horiz-adv-x="0" />
<glyph unicode="&#xd;" horiz-adv-x="552" />
<glyph unicode=" "  horiz-adv-x="552" />
<glyph unicode="&#x09;" horiz-adv-x="552" />
<glyph unicode="&#xa0;" horiz-adv-x="552" />
<glyph unicode="!" horiz-adv-x="380" d="M119 0h143v215h-143v-215zM139 338v1096h103v-1096h-103z" />
<glyph unicode="&#x22;" horiz-adv-x="645" d="M164 922v512h92v-512h-92zM389 922v512h92v-512h-92z" />
<glyph unicode="#" horiz-adv-x="1228" d="M82 492l20 102h224l43 246h-226l21 102h221l86 492h102l-86 -492h328l86 492h103l-86 -492h229l-21 -102h-225l-43 -246h227l-20 -102h-223l-84 -492h-103l84 492h-327l-84 -492h-103l84 492h-227zM428 594h328l43 246h-328z" />
<glyph unicode="$" horiz-adv-x="901" d="M72 143l61 82q1 -1 23 -21.5t36 -32.5t45.5 -33.5t58.5 -33.5t66 -22t78 -10q114 0 190.5 78.5t76.5 187.5q0 76 -33.5 136.5t-86.5 101.5t-118 79t-129.5 78.5t-117.5 88t-86.5 120.5t-33.5 164q0 138 82.5 232t194.5 118v213h102v-207q83 -10 146.5 -55t130.5 -127 l-62 -82q-29 35 -42 49.5t-41.5 42t-50 39.5t-54 22.5t-68.5 10.5q-97 0 -166 -69.5t-69 -186.5q0 -74 33.5 -134t86.5 -102t117.5 -81t129 -80.5t117.5 -89.5t86.5 -120t33.5 -161q0 -81 -30 -149t-79 -112t-105.5 -70.5t-113.5 -33.5v-209h-102v209q-186 20 -307 170z" />
<glyph unicode="%" horiz-adv-x="1300" d="M123 0l942 1249h113l-942 -1249h-113zM195 1075q0 116 80.5 196.5t195.5 80.5q117 0 198 -80.5t81 -196.5q0 -117 -81 -196.5t-198 -79.5q-116 0 -196 79.5t-80 196.5zM287 1075q0 -78 53.5 -131t130.5 -53t130.5 53t53.5 131q0 77 -54 131t-130 54t-130 -54t-54 -131z M614 256q0 115 80.5 195.5t196.5 80.5q117 0 197.5 -80t80.5 -196q0 -117 -80.5 -196.5t-197.5 -79.5q-116 0 -196.5 79.5t-80.5 196.5zM707 256q0 -78 53.5 -131t130.5 -53t130.5 53t53.5 131q0 76 -53.5 130t-130.5 54t-130.5 -54t-53.5 -130z" />
<glyph unicode="&#x26;" horiz-adv-x="960" d="M41 338q0 65 18.5 124t48 102t65 80t71 61t65 41t47.5 24l19 8l-23 33q-86 128 -86 264q0 118 81 197.5t179 79.5q119 0 190.5 -72.5t71.5 -189.5q0 -48 -15 -89t-37 -67t-50.5 -47t-51 -31t-42.5 -16l-49 82q6 2 15.5 5.5t34 18t43.5 32t34.5 48t15.5 64.5 q0 70 -43.5 114.5t-116.5 44.5q-65 0 -111 -52t-46 -122q0 -48 17.5 -99t33 -77.5t45.5 -73.5l323 -475q27 56 52.5 150t25.5 145l95 31q-3 -28 -10 -75t-35.5 -158t-65.5 -183l172 -260h-125l-113 168q-5 -8 -14.5 -21.5t-45 -48t-77 -60.5t-111.5 -47.5t-147 -21.5 q-99 0 -180 54t-124.5 138t-43.5 177zM150 336q0 -117 65 -182q78 -78 188 -78q196 0 324 178l-297 442q-137 -47 -208.5 -148t-71.5 -212z" />
<glyph unicode="'" horiz-adv-x="532" d="M164 901q33 28 62.5 99.5t29.5 136.5q0 99 -72 235l103 62q9 -16 22.5 -43.5t36.5 -98t23 -125.5q0 -47 -16 -98t-38.5 -90t-45 -71.5t-38.5 -49.5l-16 -18z" />
<glyph unicode="(" horiz-adv-x="880" d="M328 717q0 298 74.5 549t252.5 495l82 -65q-307 -404 -307 -979t307 -979l-82 -66q-178 244 -252.5 495.5t-74.5 549.5z" />
<glyph unicode=")" horiz-adv-x="880" d="M143 -262q308 406 308 979t-308 979l82 65q178 -244 253 -495.5t75 -548.5q0 -298 -75 -549.5t-253 -495.5z" />
<glyph unicode="*" horiz-adv-x="737" d="M82 983l207 137l-207 140l61 81l174 -122v215h103v-215l174 122l61 -81l-209 -140l209 -137l-61 -82l-174 121v-213h-103v213l-174 -121z" />
<glyph unicode="+" horiz-adv-x="962" d="M113 492l20 102h297v328h102v-328h318l-21 -102h-297v-328h-102v328h-317z" />
<glyph unicode="," horiz-adv-x="512" d="M102 -225q65 99 84 186t19 244v61h102v-61q0 -167 -35 -261t-127 -210z" />
<glyph unicode="-" horiz-adv-x="929" d="M164 481l22 107h580l-18 -107h-584z" />
<glyph unicode="." horiz-adv-x="552" d="M225 0v215h144v-215h-144z" />
<glyph unicode="/" horiz-adv-x="727" d="M10 -31l594 1495h113l-594 -1495h-113z" />
<glyph unicode="0" horiz-adv-x="1064" d="M123 666q0 107 14.5 205t47 186.5t79.5 153.5t115.5 103t152.5 38q104 0 184.5 -57.5t128.5 -155.5t72.5 -218t24.5 -255t-24.5 -255t-72.5 -218t-128.5 -155.5t-184.5 -57.5q-84 0 -152.5 38t-115.5 103t-79.5 153.5t-47 186.5t-14.5 205zM225 666q0 -106 19.5 -208 t56.5 -187t97 -137t134 -52t134 52t97 137t57 187t20 208t-20 208t-57 186.5t-97 136.5t-134 52t-134 -52t-97 -136.5t-56.5 -186.5t-19.5 -208z" />
<glyph unicode="1" horiz-adv-x="698" d="M123 1167v103l319 61v-1331h-106v1206z" />
<glyph unicode="2" horiz-adv-x="1042" d="M82 0l326 369q23 27 71.5 79.5t81.5 88.5t75 91t67.5 100.5t44 102.5t18.5 111q0 131 -82 219t-205 88q-58 0 -108.5 -23t-81.5 -56.5t-53.5 -66.5t-31.5 -56l-9 -23l-95 41q4 12 12.5 31t41.5 68.5t72.5 87.5t107.5 69t145 31q96 0 172.5 -36.5t122.5 -96t70 -131 t24 -146.5q0 -61 -21 -128t-46.5 -116.5t-73 -114.5t-73.5 -95t-77.5 -86t-56.5 -62l-209 -238h588l-41 -102h-776z" />
<glyph unicode="3" horiz-adv-x="1024" d="M82 113l53 92q7 -5 18.5 -13.5t48 -29.5t72 -37t85 -29.5t92.5 -13.5q53 0 108 16.5t108 50.5t87 96.5t34 143.5q0 70 -27.5 123.5t-74 83.5t-100.5 44.5t-115 14.5h-72l21 93q48 2 98.5 21.5t95.5 53t74 86.5t29 115q0 96 -66 160.5t-190 64.5q-40 0 -81.5 -11 t-71.5 -26.5t-55 -31t-37 -26.5l-13 -11l-49 86q5 5 15 13.5t42.5 29.5t66.5 37t84 29.5t99 13.5q68 0 130.5 -20t114 -58.5t82.5 -103t31 -146.5q0 -203 -170 -297q34 -8 73 -33t78 -65t65 -103.5t26 -136.5q0 -181 -126 -295t-314 -114q-101 0 -198.5 39.5t-170.5 93.5z " />
<glyph unicode="4" horiz-adv-x="931" d="M31 348l307 871l82 -72l-244 -696h387v880h103v-880h215l-41 -103h-174v-348h-103v348h-532z" />
<glyph unicode="5" horiz-adv-x="1044" d="M102 113l52 92q6 -5 17.5 -13.5t45.5 -29.5t68 -37t80 -29.5t86 -13.5q57 0 117 20.5t115 60.5t90.5 109.5t35.5 157.5q0 143 -89 219t-239 76q-157 0 -286 -121h-11l103 727h501l-20 -102h-389l-62 -430q113 30 189 30q184 0 294.5 -108.5t110.5 -290.5q0 -104 -40 -191 t-106 -142.5t-147.5 -86t-166.5 -30.5q-57 0 -114.5 13.5t-97.5 33t-72.5 39.5t-48.5 34z" />
<glyph unicode="6" horiz-adv-x="1024" d="M113 418q0 65 15.5 137t31.5 111l16 39q13 37 99.5 193.5t166.5 294.5l80 138h103l-328 -583q81 81 215 81q174 0 286.5 -120.5t112.5 -302.5t-113.5 -304t-287.5 -122q-173 0 -285 122.5t-112 315.5zM215 406q0 -129 84.5 -224.5t212.5 -95.5t212.5 95.5t84.5 224.5 q0 128 -84 222.5t-213 94.5q-131 0 -214 -84.5t-83 -232.5z" />
<glyph unicode="7" horiz-adv-x="921" d="M102 1229l41 102h697l-543 -1331h-115l504 1229h-584z" />
<glyph unicode="8" horiz-adv-x="1044" d="M113 358q0 245 266 369q-105 57 -160 130.5t-55 176.5q0 60 20.5 115t62 101.5t112.5 74t163 27.5t163.5 -27.5t113 -74t62 -101.5t20.5 -115q0 -99 -57.5 -172t-157.5 -135q266 -124 266 -369q0 -71 -24.5 -137t-72.5 -120.5t-129 -87.5t-184 -33t-184 33t-128.5 87.5 t-72 120t-24.5 137.5zM215 358q0 -118 88.5 -197t220.5 -79t218.5 78.5t86.5 197.5q0 46 -17 88.5t-44 73.5t-59.5 57.5t-65.5 44t-60 30.5t-44 18l-17 6q-6 -2 -17.5 -6t-43 -18t-60.5 -30.5t-64.5 -44t-61 -58t-43 -73t-17.5 -88.5zM266 1034q0 -55 26.5 -101t64 -73 t75 -46.5t64.5 -26.5l26 -7q5 1 14.5 3.5t36 12.5t50.5 22.5t53.5 34t51 46t36 60t14.5 75.5q0 99 -68.5 157t-187.5 58t-187.5 -58t-68.5 -157z" />
<glyph unicode="9" horiz-adv-x="962" d="M113 973q0 155 107.5 267t260.5 112t261 -112t108 -267q0 -51 -16 -107q-7 -24 -15 -43l-297 -823h-110l233 635q-74 -41 -164 -41q-153 0 -260.5 112t-107.5 267zM215 973q0 -110 76.5 -193.5t189.5 -83.5q109 0 188 84t79 193q0 110 -77 193t-190 83t-189.5 -83 t-76.5 -193z" />
<glyph unicode=":" horiz-adv-x="552" d="M225 0v215h144v-215h-144zM225 686v215h144v-215h-144z" />
<glyph unicode=";" horiz-adv-x="536" d="M143 -225q65 99 84 186t19 244v61h102v-61q0 -167 -35 -261t-127 -210zM244 686v215h106v-215h-106z" />
<glyph unicode="&#x3c;" horiz-adv-x="1024" d="M113 502v102l798 297v-102l-661 -246l661 -246v-102z" />
<glyph unicode="=" horiz-adv-x="1024" d="M113 338l20 102h737l-20 -102h-737zM154 645l20 103h737l-20 -103h-737z" />
<glyph unicode="&#x3e;" horiz-adv-x="1024" d="M113 205v102l661 246l-661 246v102l798 -297v-102z" />
<glyph unicode="?" horiz-adv-x="604" d="M143 573q0 62 21.5 117t53 93.5t69 81.5t69 81.5t53 93.5t21.5 117q0 103 -79 156t-208 53l31 98q56 0 107.5 -11t97.5 -35.5t80 -59.5t53.5 -86.5t19.5 -114.5q0 -82 -29.5 -153.5t-71.5 -122.5t-84 -98t-71.5 -100.5t-29.5 -109.5q0 -134 133 -184l-51 -82 q-185 80 -185 266zM236 0v215h143v-215h-143z" />
<glyph unicode="@" horiz-adv-x="1720" d="M143 582q0 109 29 217.5t89.5 208t145 176.5t204.5 122.5t259 45.5t257 -45.5t199.5 -121.5t139 -176t84.5 -208.5t27 -218.5q0 -197 -72 -297.5t-190 -100.5q-153 0 -230 101q-42 -41 -111.5 -60.5t-137.5 -19.5q-149 0 -246.5 105.5t-97.5 262.5q0 158 97.5 264.5 t246.5 106.5q123 0 219 -96v80h102v-457q0 -55 15 -93.5t40 -57t50 -26t53 -7.5q71 0 115.5 73t44.5 222q-1 98 -25.5 193t-75.5 181t-121.5 151t-169.5 103.5t-213 38.5q-115 0 -216 -38.5t-174.5 -104t-127 -150.5t-80 -181t-26.5 -193t26.5 -192.5t80 -180.5t127 -150 t174.5 -103t216 -38q224 0 410 182l86 -51q-102 -109 -221.5 -171t-274.5 -62q-117 0 -221 32t-182.5 87.5t-141 129.5t-102 159.5t-60 176t-20.5 181.5zM594 573q0 -113 65.5 -189.5t176.5 -76.5q165 0 219 127v264q-30 70 -89.5 107t-129.5 37q-111 0 -176.5 -77.5 t-65.5 -191.5z" />
<glyph unicode="A" horiz-adv-x="1208" d="M10 0l594 1464l594 -1464h-113l-237 584h-490l-235 -584h-113zM397 676h414l-207 510z" />
<glyph unicode="B" horiz-adv-x="931" d="M184 0v1434h148q231 0 349 -95.5t118 -283.5q0 -100 -45 -181.5t-129 -130.5q113 -47 174 -128.5t61 -225.5q0 -179 -117 -284t-292 -105h-267zM287 102h112q174 0 266.5 77t92.5 210t-92.5 210t-266.5 77h-112v-574zM287 778h104q145 0 225 81t80 196q0 140 -86 208 t-241 68h-82v-553z" />
<glyph unicode="C" horiz-adv-x="1175" d="M72 717q0 109 27.5 215.5t84 202.5t135.5 169t190 116.5t239 43.5q188 0 335 -75l-39 -105q-117 70 -296 70q-123 0 -230 -54.5t-179.5 -143.5t-113.5 -203.5t-41 -235.5q0 -171 72 -316.5t205 -234t297 -88.5q66 0 137.5 21.5t109.5 40.5t91 50l39 -104 q-196 -117 -377 -117q-160 0 -292 63.5t-217 169t-131 238.5t-46 277z" />
<glyph unicode="D" horiz-adv-x="1212" d="M184 0v1434h103q142 0 259 -18t230.5 -67t191.5 -127t125.5 -206.5t47.5 -298.5t-47.5 -298.5t-125.5 -206.5t-191.5 -127t-230.5 -67t-259 -18h-103zM287 102q79 0 148.5 6t147 23t141 45t122.5 75.5t99.5 110.5t64.5 153.5t24 201.5q0 97 -18 179t-51.5 141.5t-77 107 t-100.5 79t-115 53.5t-126.5 33.5t-129 16t-129.5 4.5v-1229z" />
<glyph unicode="E" d="M184 0v1434h656v-93h-553v-604h573v-92h-573v-553h573v-92h-676z" />
<glyph unicode="F" d="M184 0v1434h656v-93h-553v-604h573v-92h-573v-645h-103z" />
<glyph unicode="G" horiz-adv-x="1556" d="M72 717q0 108 29.5 215t89 202.5t141.5 169.5t195 117t241 43q160 0 293 -66.5t229 -183.5l-61 -77q-178 225 -461 225q-99 0 -190.5 -36t-161.5 -98.5t-123 -144t-81 -176t-28 -190.5t28 -190.5t81 -176t123 -144t161.5 -98.5t190.5 -36q111 0 202.5 32.5t153.5 87 t105 127.5t62.5 152.5t19.5 163.5h-471v102h583v-24q0 -167 -38 -301t-116 -234t-205 -154.5t-296 -54.5q-128 0 -241 43.5t-195 117t-141.5 169.5t-89 203t-29.5 215z" />
<glyph unicode="H" horiz-adv-x="1280" d="M184 0v1434h103v-686h706v686h103v-1434h-103v655h-706v-655h-103z" />
<glyph unicode="I" horiz-adv-x="475" d="M184 0v1434h107v-1434h-107z" />
<glyph unicode="J" horiz-adv-x="552" d="M0 1341l31 93h358v-1168q0 -229 -69.5 -367.5t-258.5 -256.5l-59 88q76 47 125.5 92t87.5 107.5t55 144.5t17 192v1075h-287z" />
<glyph unicode="K" horiz-adv-x="1048" d="M184 0v1434h103v-748l553 748h123l-549 -762l594 -672h-138l-583 655v-655h-103z" />
<glyph unicode="L" horiz-adv-x="737" d="M184 0v1434h103v-1342h409v-92h-512z" />
<glyph unicode="M" horiz-adv-x="1576" d="M184 0v1464l604 -1054l605 1054v-1464h-103v1096l-502 -891l-501 870v-1075h-103z" />
<glyph unicode="N" horiz-adv-x="1413" d="M184 0v1464l942 -1206v1176h103v-1465l-942 1207v-1176h-103z" />
<glyph unicode="O" horiz-adv-x="1556" d="M72 717q0 108 30.5 215t91.5 202.5t144.5 169.5t197.5 117t242 43q159 0 295 -66t224.5 -173t138 -239.5t49.5 -268.5q0 -108 -30.5 -215.5t-92 -203.5t-145 -169.5t-197.5 -116.5t-242 -43t-242 43.5t-197.5 117t-144.5 169.5t-91.5 203t-30.5 215zM184 717 q0 -120 46 -235.5t124 -204t189.5 -143t234.5 -54.5t234.5 54.5t189.5 143t124 204t46 235.5t-46 235.5t-124 204t-189.5 143t-234.5 54.5t-234.5 -54.5t-189.5 -143t-124 -204t-46 -235.5z" />
<glyph unicode="P" horiz-adv-x="911" d="M184 0v1434h103q96 0 177 -15t153.5 -51.5t123 -93t80 -144.5t29.5 -202q0 -141 -44 -242.5t-123.5 -158t-177 -82t-218.5 -25.5v-420h-103zM287 522q76 0 138 10.5t121.5 38.5t100.5 72.5t65.5 117t24.5 167.5t-24.5 167.5t-65 116.5t-100.5 71.5t-122 37.5t-138 10 v-809z" />
<glyph unicode="Q" horiz-adv-x="1556" d="M72 717q0 108 30.5 215t91.5 202.5t144.5 169.5t197.5 117t242 43q159 0 295 -66t224.5 -173t138 -239.5t49.5 -268.5q0 -183 -90 -359t-244 -280l293 -160l-103 -61l-303 163q-121 -51 -260 -51q-128 0 -242 43.5t-197.5 117t-144.5 169.5t-91.5 203t-30.5 215zM184 717 q0 -120 46 -235.5t124 -204t189.5 -143t234.5 -54.5t234.5 54.5t189.5 143t124 204t46 235.5t-46 235.5t-124 204t-189.5 143t-234.5 54.5t-234.5 -54.5t-189.5 -143t-124 -204t-46 -235.5z" />
<glyph unicode="R" horiz-adv-x="966" d="M184 0v1434h103q81 0 154 -11.5t143.5 -40.5t121.5 -73t82 -115t31 -162q0 -80 -22 -144.5t-59 -108.5t-89.5 -76t-109 -49t-121.5 -25l538 -629h-137l-532 623v-623h-103zM287 725q430 0 430 307q0 60 -18 108t-50.5 80t-73 54.5t-91 34.5t-97.5 17t-100 5v-606z" />
<glyph unicode="S" horiz-adv-x="901" d="M72 143l61 82q1 -1 23 -21.5t36 -32.5t45.5 -33.5t58.5 -33.5t66 -22t78 -10q114 0 190.5 78.5t76.5 187.5q0 76 -33.5 136.5t-86.5 101.5t-118 79t-129.5 78.5t-117.5 88t-86.5 120.5t-33.5 164q0 81 31 150.5t80.5 113.5t108.5 69t118 25q100 0 172 -46t146 -138 l-62 -82q-29 35 -42 49.5t-41.5 42t-50 39.5t-54 22.5t-68.5 10.5q-97 0 -166 -69.5t-69 -186.5q0 -74 33.5 -134t86.5 -102t117.5 -81t129 -80.5t117.5 -89.5t86.5 -120t33.5 -161q0 -71 -23.5 -132.5t-62 -104t-87 -73t-99 -45t-97.5 -14.5q-226 0 -368 174z" />
<glyph unicode="T" horiz-adv-x="737" d="M41 1341v93h655v-93h-276v-1341h-103v1341h-276z" />
<glyph unicode="U" horiz-adv-x="1249" d="M164 481v953h102v-912q0 -227 98 -338.5t261 -111.5t260.5 111.5t97.5 338.5v912h102v-953q0 -140 -52 -255t-158 -186t-250 -71q-108 0 -196.5 41t-145.5 111.5t-88 163t-31 196.5z" />
<glyph unicode="V" horiz-adv-x="1146" d="M20 1434h103l450 -1209l451 1209h102l-553 -1465z" />
<glyph unicode="W" horiz-adv-x="1474" d="M31 1434h102l297 -1100l307 1130l307 -1130l297 1100h103l-400 -1465l-307 1131l-307 -1131z" />
<glyph unicode="X" horiz-adv-x="1085" d="M41 0l444 770l-383 664h113l328 -568l327 568h113l-385 -664l446 -770h-112l-389 672l-389 -672h-113z" />
<glyph unicode="Y" horiz-adv-x="991" d="M20 1434h119l357 -676l362 676h113l-418 -791v-643h-113v643z" />
<glyph unicode="Z" horiz-adv-x="1034" d="M82 0l719 1341h-606v93h768l-717 -1342h676v-92h-840z" />
<glyph unicode="[" horiz-adv-x="819" d="M328 -328v2089h379l30 -102h-307v-1884h307l-30 -103h-379z" />
<glyph unicode="\" horiz-adv-x="727" d="M10 1464h113l594 -1495h-113z" />
<glyph unicode="]" horiz-adv-x="819" d="M82 -225h307v1884h-307l31 102h379v-2089h-379z" />
<glyph unicode="^" horiz-adv-x="1085" d="M61 717l431 635h102l430 -635h-102l-379 559l-379 -559h-103z" />
<glyph unicode="_" d="M41 -102l20 102h840l-20 -102h-840z" />
<glyph unicode="`" horiz-adv-x="583" d="M143 1331h103l194 -287h-102z" />
<glyph unicode="a" horiz-adv-x="1120" d="M92 451q0 200 127 335.5t318 135.5q80 0 165.5 -32.5t141.5 -90.5v102h102v-901h-102v82q-102 -102 -307 -102q-191 0 -318 135.5t-127 335.5zM205 451q0 -152 94 -260.5t238 -108.5q194 0 307 133v440q-59 77 -140.5 120.5t-166.5 43.5q-144 0 -238 -108t-94 -260z" />
<glyph unicode="b" horiz-adv-x="1064" d="M174 410v190v936h102v-727q122 113 277 113q189 0 304.5 -134t115.5 -337q0 -201 -125 -336t-316 -135q-165 0 -261.5 120.5t-96.5 309.5zM276 410q0 -148 75.5 -238t180.5 -90q145 0 241.5 107t96.5 262q0 158 -87 263t-230 105q-83 0 -156.5 -43.5t-120.5 -99.5v-266z " />
<glyph unicode="c" horiz-adv-x="880" d="M102 451q0 92 30 177t83.5 150t133.5 104.5t173 39.5q161 0 277 -93l-31 -102q-36 29 -58.5 44t-74 31.5t-113.5 16.5q-94 0 -168 -53t-111.5 -136.5t-37.5 -178.5t37.5 -178.5t111.5 -137t168 -53.5q77 0 149 28t117 64l31 -102q-20 -26 -108.5 -59t-188.5 -33 q-93 0 -173 39.5t-133.5 104.5t-83.5 150t-30 177z" />
<glyph unicode="d" horiz-adv-x="1116" d="M92 451q0 201 124.5 336t315.5 135q80 0 166 -32.5t142 -90.5v737h102v-1536h-102v82q-54 -54 -137 -78t-171 -24q-191 0 -315.5 135t-124.5 336zM205 451q0 -69 24 -135.5t66 -118t104 -83.5t133 -32q89 0 170.5 33.5t137.5 99.5v440q-58 76 -140.5 120t-167.5 44 q-94 0 -170.5 -54t-116.5 -137.5t-40 -176.5z" />
<glyph unicode="e" horiz-adv-x="1064" d="M92 451q0 129 51.5 235.5t153 171t235.5 64.5q213 0 327 -119t114 -311v-82h-768q0 -39 10 -81.5t34.5 -87t60.5 -79.5t94 -57.5t128 -22.5q111 0 210 39.5t149 83.5l31 -99q-51 -45 -155.5 -85.5t-234.5 -40.5q-134 0 -235.5 64.5t-153 171t-51.5 235.5zM205 512h657 q0 55 -20.5 108.5t-59.5 98.5t-104 72.5t-146 27.5q-62 0 -116.5 -21t-92 -54.5t-65 -74.5t-40.5 -81.5t-13 -75.5z" />
<glyph unicode="f" horiz-adv-x="532" d="M154 799l61 102v82q0 202 55.5 315.5t200.5 165.5l21 -100q-54 -19 -89.5 -52.5t-53.5 -85t-25 -108t-7 -135.5v-82h175l-21 -102h-154v-1106l-102 -51v1157h-61z" />
<glyph unicode="g" horiz-adv-x="1116" d="M92 451q0 201 124.5 336t315.5 135q80 0 166 -32.5t142 -90.5v102h102v-901q0 -51 -6 -96.5t-27 -99.5t-55 -92.5t-96 -64.5t-144 -26q-49 0 -103.5 9.5t-84.5 19.5l-29 10l33 94q110 -30 184 -30q119 0 172.5 70t53.5 206v82q-54 -54 -137 -78t-171 -24 q-191 0 -315.5 135t-124.5 336zM205 451q0 -69 24 -135.5t66 -118t104 -83.5t133 -32q89 0 170.5 33.5t137.5 99.5v440q-58 76 -140.5 120t-167.5 44q-94 0 -170.5 -54t-116.5 -137.5t-40 -176.5z" />
<glyph unicode="h" horiz-adv-x="993" d="M174 0v1536h102v-737q5 5 14.5 13.5t40 29.5t63 37t81.5 29.5t98 13.5q109 0 188 -85t79 -243v-594h-103v553q0 45 -4 79.5t-16.5 71t-34.5 60.5t-60 39.5t-90 15.5q-59 0 -123 -33.5t-99 -66.5l-34 -33v-686h-102z" />
<glyph unicode="i" horiz-adv-x="376" d="M133 1126v185h111v-185h-111zM135 0v901h107v-901h-107z" />
<glyph unicode="j" horiz-adv-x="385" d="M20 -256q73 57 100 129.5t27 212.5v815h103v-821q0 -182 -43 -277.5t-141 -160.5zM145 1126v185h107v-185h-107z" />
<glyph unicode="k" horiz-adv-x="849" d="M174 0v1536h102v-1065l379 430h123l-379 -430l420 -471h-133l-410 459v-459h-102z" />
<glyph unicode="l" horiz-adv-x="454" d="M174 0v1536h107v-1536h-107z" />
<glyph unicode="m" horiz-adv-x="1454" d="M174 0v901h102v-102q3 5 9.5 13.5t30.5 29.5t51 37t71.5 29.5t93.5 13.5q64 0 121.5 -31t94.5 -92q115 123 286 123q109 0 187.5 -84.5t78.5 -243.5v-594h-102v553q0 45 -4 79.5t-16.5 71t-34.5 60.5t-60 39.5t-90 15.5q-122 0 -207 -119q13 -50 13 -106v-594h-103v553 q0 45 -4 79.5t-16.5 71t-34 60.5t-59.5 39.5t-90 15.5q-37 0 -73 -13.5t-61 -33.5t-44 -39.5t-28 -32.5l-10 -14v-686h-102z" />
<glyph unicode="n" horiz-adv-x="993" d="M174 0v901h102v-102q5 5 14.5 13.5t40 29.5t63 37t81.5 29.5t98 13.5q109 0 188 -85t79 -243v-594h-103v553q0 45 -4 79.5t-16.5 71t-34.5 60.5t-60 39.5t-90 15.5q-59 0 -123 -33.5t-99 -66.5l-34 -33v-686h-102z" />
<glyph unicode="o" horiz-adv-x="1069" d="M92 451q0 201 126 336t317 135t316.5 -135t125.5 -336t-125.5 -336t-316.5 -135t-317 135t-126 336zM199 451q0 -92 42.5 -176.5t121 -138.5t172.5 -54t172 54t120.5 138.5t42.5 176.5t-42.5 176t-120.5 138t-172 54t-172.5 -53.5t-121 -138t-42.5 -176.5z" />
<glyph unicode="p" horiz-adv-x="1120" d="M174 -358v1259h102v-102q56 58 142 90.5t166 32.5q191 0 317.5 -135.5t126.5 -335.5t-126.5 -335.5t-317.5 -135.5q-88 0 -171 24t-137 78v-399zM276 215q56 -67 137 -100t171 -33q143 0 237 108t94 261q0 152 -93.5 260t-237.5 108q-85 0 -167.5 -44t-140.5 -120v-440z " />
<glyph unicode="q" horiz-adv-x="1120" d="M92 451q0 200 127 335.5t318 135.5q80 0 165.5 -32.5t141.5 -90.5v102h102v-1218l-102 -41v440q-102 -102 -307 -102q-191 0 -318 135.5t-127 335.5zM205 451q0 -152 94 -260.5t238 -108.5q194 0 307 133v440q-59 77 -140.5 120.5t-166.5 43.5q-144 0 -238 -108t-94 -260 z" />
<glyph unicode="r" horiz-adv-x="604" d="M174 0v901h102v-102q4 4 12.5 11.5t36 27t56.5 35t73.5 30t88.5 17.5v-101q-40 -3 -82 -18.5t-74 -36t-58 -40.5t-39 -34l-14 -14v-676h-102z" />
<glyph unicode="s" horiz-adv-x="727" d="M82 102l31 99q5 -5 15 -13t38.5 -28.5t56.5 -36t65.5 -28.5t69.5 -13q72 0 118 48t46 106q0 35 -22 65t-57 53.5t-78 47t-85.5 51.5t-77.5 60t-57 79t-22 104q0 58 25 104t63.5 71t79 38t78.5 13q35 0 71 -9.5t62.5 -23t48 -27.5t32.5 -24l11 -9l-31 -96 q-29 25 -49.5 39.5t-61.5 30.5t-83 16q-57 0 -100.5 -34t-43.5 -89q0 -42 22 -77t57.5 -60.5t78 -50t85 -50.5t78 -55.5t57.5 -72.5t22 -94t-17 -94.5t-44 -72.5t-62.5 -49.5t-71.5 -30t-72 -9.5q-43 0 -87.5 12.5t-77 30.5t-58.5 36t-39 31z" />
<glyph unicode="t" horiz-adv-x="686" d="M154 799l61 102v502l102 31v-533h256l-20 -102h-236v-553q0 -79 20.5 -121.5t72.5 -42.5q36 0 72 11t54 23l17 11v-107q-65 -40 -143 -40q-45 0 -79.5 14t-56 36t-35 53.5t-19 63.5t-5.5 68v584h-61z" />
<glyph unicode="u" horiz-adv-x="1003" d="M154 420v481h102v-440q0 -96 11 -162t39 -117t79.5 -75.5t128.5 -24.5q43 0 96 9t85 17l32 9v784h102v-860q-198 -61 -337 -61q-156 0 -247 106.5t-91 333.5z" />
<glyph unicode="v" horiz-adv-x="901" d="M31 901h102l318 -706l317 706h102l-419 -921z" />
<glyph unicode="w" horiz-adv-x="1228" d="M41 901h102l242 -649l229 670l230 -670l241 649h103l-348 -921l-226 657l-225 -657z" />
<glyph unicode="x" horiz-adv-x="839" d="M31 0l331 487l-280 414h108l230 -338l229 338h109l-283 -414l334 -487h-113l-276 406l-277 -406h-112z" />
<glyph unicode="y" horiz-adv-x="866" d="M31 901h108l297 -696l297 696h103l-545 -1259h-103l193 446z" />
<glyph unicode="z" horiz-adv-x="849" d="M82 0l526 809h-413l20 92h563l-526 -809h536l-20 -92h-686z" />
<glyph unicode="{" horiz-adv-x="737" d="M184 711v12q57 0 85 57.5t28 141.5q0 38 -10.5 171t-10.5 187q0 202 55.5 315.5t200.5 165.5l21 -100q-102 -38 -138 -127t-36 -254q20 -276 20 -358q0 -147 -47 -205q47 -58 47 -205q0 -36 -5 -125.5t-10 -160.5l-5 -72q0 -165 36 -254t138 -127l-21 -101 q-145 52 -200.5 166t-55.5 316q0 54 10.5 187t10.5 171q0 80 -28 139.5t-85 59.5z" />
<glyph unicode="|" horiz-adv-x="348" d="M123 -358v1822h102v-1822h-102z" />
<glyph unicode="}" horiz-adv-x="737" d="M184 -227q102 38 138 127t36 254q-20 276 -20 358q0 147 47 205q-47 58 -47 205q0 36 5 125.5t10 160.5l5 72q0 165 -36 254t-138 127l21 100q145 -52 200.5 -165.5t55.5 -315.5q0 -54 -10.5 -187t-10.5 -171q0 -84 28 -141.5t85 -57.5v-12q-57 0 -85 -59.5t-28 -139.5 q0 -38 10.5 -171t10.5 -187q0 -202 -55.5 -316t-200.5 -166z" />
<glyph unicode="~" horiz-adv-x="1073" d="M82 477q25 104 98 168t164 64q57 0 113.5 -28.5t95.5 -62t86 -62t86 -28.5q62 0 99.5 40t64.5 118l102 -10q-26 -110 -95.5 -180t-170.5 -70q-49 0 -95.5 18.5t-82 45t-68.5 53t-68 45t-67 18.5q-61 0 -102.5 -45.5t-61.5 -111.5z" />
<glyph unicode="&#xa1;" horiz-adv-x="421" d="M139 1219v215h144v-215h-144zM160 0v1096h102v-1096h-102z" />
<glyph unicode="&#xa2;" horiz-adv-x="839" d="M92 451q0 173 99 306.5t260 157.5v345h102v-340q128 -9 225 -80l-20 -103q-32 23 -55 36.5t-76.5 29.5t-114.5 16q-94 0 -168 -53t-111.5 -136.5t-37.5 -178.5t37.5 -178.5t111.5 -137t168 -53.5q160 0 246 82l20 -103q-16 -22 -81 -47t-144 -32v-340h-102v344 q-161 23 -260 157.5t-99 307.5z" />
<glyph unicode="&#xa3;" d="M72 102q10 8 26.5 23.5t58.5 61.5t74.5 91.5t59 107.5t26.5 116q0 3 -1 9.5t-1 10.5h-221l21 103h176q-22 50 -47 92h-150l21 102h73q-45 92 -45 195q0 81 31 147t80.5 106.5t108.5 62.5t118 22q111 0 185 -39t143 -125l-61 -82q-60 72 -118 107.5t-149 35.5 q-100 0 -167.5 -60t-67.5 -175q0 -90 59 -195h330l-21 -102h-254q25 -45 39 -92h236l-21 -103h-194v-20q0 -156 -164 -344q68 16 119 16q57 0 112 -23t100 -46t77 -23q18 0 34.5 2t33 8.5t26.5 10t28 16t23 16t26 20t25 19.5l21 -96q-128 -98 -217 -98q-37 0 -86 23t-102 46 t-101 23q-116 0 -283 -72z" />
<glyph unicode="&#xa4;" horiz-adv-x="921" d="M82 256l92 92q-72 94 -72 215q0 119 72 213l-92 94l72 72l92 -94q100 74 215 74q121 0 215 -72l92 92l72 -72l-92 -92q71 -96 71 -215q0 -122 -71 -215l92 -92l-72 -72l-92 92q-93 -71 -215 -71t-215 71l-92 -92zM205 563q0 -101 77.5 -178.5t178.5 -77.5q100 0 178 77.5 t78 178.5q0 100 -78 178t-178 78q-101 0 -178.5 -78t-77.5 -178z" />
<glyph unicode="&#xa5;" horiz-adv-x="993" d="M20 1434h119l387 -695l334 695h113l-256 -533h194v-102h-243l-84 -174v-93h327v-102h-327v-430h-113v430h-328v102h328v93l-98 174h-230v102h172z" />
<glyph unicode="&#xa6;" horiz-adv-x="430" d="M164 -358v768h102v-768h-102zM164 696v768h102v-768h-102z" />
<glyph unicode="&#xa7;" horiz-adv-x="921" d="M123 635q0 60 22 115t53.5 90t63.5 61.5t54 38.5l22 12q-3 5 -8.5 13t-20 35t-25 55.5t-19.5 70t-9 82.5q0 126 90.5 191t226.5 65l21 -98q-236 0 -236 -158q0 -57 24.5 -111.5t63 -100t85.5 -91t94.5 -94t86 -99t63 -115.5t24.5 -136q0 -54 -15.5 -102t-46.5 -88 t-53 -62t-57 -53q3 -4 8.5 -11.5t19.5 -31.5t24.5 -50t19 -66t8.5 -79q0 -136 -85.5 -221.5t-211.5 -85.5q-95 0 -134 20l-20 103q91 -21 154 -21q89 0 141.5 58.5t52.5 146.5q0 68 -26.5 126t-69 101t-93.5 83t-102.5 81t-94 85.5t-69 106.5t-26.5 134zM225 635 q0 -51 35 -110.5t85 -108.5t100 -90.5t85 -64.5l35 -23q5 4 14 11t31.5 30t40 47t31.5 61t14 74q0 56 -30.5 119t-74 112.5t-87.5 91t-74 64.5l-31 22q-7 -2 -19 -7.5t-42 -25.5t-52.5 -44t-41.5 -66.5t-19 -91.5z" />
<glyph unicode="&#xa8;" horiz-adv-x="634" d="M143 1065v174h97v-174h-97zM395 1065v174h97v-174h-97z" />
<glyph unicode="&#xa9;" horiz-adv-x="1761" d="M143 717q0 134 54.5 267.5t148.5 240t235 173t300 66.5q128 0 245 -43t205 -116.5t153.5 -168.5t99.5 -203t34 -216t-34 -216t-99.5 -203t-153.5 -169t-205 -117t-245 -43t-245 43t-205.5 117.5t-154 169.5t-99.5 203t-34 215zM256 717q0 -119 50.5 -235.5t134.5 -206 t200.5 -144.5t239.5 -55q164 0 309.5 93t230 241t84.5 307t-84.5 307t-230 241t-309.5 93q-123 0 -239.5 -55t-200.5 -144.5t-134.5 -206t-50.5 -235.5zM502 717q0 109 46.5 207t135 160.5t197.5 62.5q143 0 247 -82l-28 -100q-102 79 -219 79q-124 0 -200.5 -97.5 t-76.5 -229.5t76.5 -230t200.5 -98q69 0 133.5 25t103.5 57l29 -92q-19 -25 -98.5 -58.5t-167.5 -33.5q-109 0 -197.5 62.5t-135 160.5t-46.5 207z" />
<glyph unicode="&#xaa;" horiz-adv-x="778" d="M102 1147q0 131 80.5 219t204.5 88q109 0 186 -80v68h82v-588h-82v53q-67 -67 -186 -67q-123 0 -204 88.5t-81 218.5zM184 1147q0 -93 56 -159t147 -66q67 0 114.5 19t71.5 73v254q-44 104 -186 104q-91 0 -147 -65.5t-56 -159.5z" />
<glyph unicode="&#xab;" horiz-adv-x="761" d="M164 451l205 358l55 -78l-158 -280l158 -281l-55 -78zM420 451l205 358l55 -78l-158 -280l158 -281l-55 -78z" />
<glyph unicode="&#xac;" horiz-adv-x="1075" d="M113 481l20 103h830v-348h-103v245h-747z" />
<glyph unicode="&#xad;" horiz-adv-x="929" d="M164 481l22 107h580l-18 -107h-584z" />
<glyph unicode="&#xae;" horiz-adv-x="1761" d="M143 717q0 134 54.5 267.5t148.5 240t235 173t300 66.5q128 0 245 -43t205 -116.5t153.5 -168.5t99.5 -203t34 -216t-34 -216t-99.5 -203t-153.5 -169t-205 -117t-245 -43t-245 43t-205.5 117.5t-154 169.5t-99.5 203t-34 215zM256 717q0 -159 84.5 -308t230.5 -243 t310 -94t309.5 94t230 243t84.5 308t-84.5 308t-230 243t-309.5 94t-310 -94t-230.5 -243t-84.5 -308zM700 334v766h103q295 0 295 -217q0 -87 -48.5 -140t-129.5 -69l245 -340h-121l-241 332v-332h-103zM803 768q102 0 147 25t45 90q0 63 -50 88.5t-142 25.5v-229z" />
<glyph unicode="&#xaf;" horiz-adv-x="757" d="M143 1065v92h471v-92h-471z" />
<glyph unicode="&#xb0;" horiz-adv-x="718" d="M82 1178q0 116 80 196t196 80q117 0 198 -80t81 -196q0 -117 -81 -197t-198 -80q-116 0 -196 80t-80 197zM174 1178q0 -78 53.5 -131.5t130.5 -53.5t131 53.5t54 131.5q0 76 -54 130t-131 54q-76 0 -130 -54t-54 -130z" />
<glyph unicode="&#xb1;" horiz-adv-x="962" d="M113 102l20 103h717l-21 -103h-716zM113 492l20 102h297v328h102v-328h318l-21 -102h-297v-226h-102v226h-317z" />
<glyph unicode="&#xb2;" horiz-adv-x="636" d="M51 635q117 140 250 295q41 49 60 73.5t44 61.5t34.5 68t9.5 63q0 62 -41.5 104.5t-100.5 42.5q-35 0 -64.5 -16.5t-48 -42t-28 -43t-14.5 -31.5l-95 54q3 7 8.5 19.5t27 44t47 55.5t69.5 43.5t94 19.5q63 0 112.5 -22t79 -58.5t45 -80t15.5 -89.5q0 -22 -4 -45 t-10.5 -43.5t-17.5 -42.5t-20.5 -39.5t-23.5 -38t-23.5 -33.5t-24 -30.5t-21.5 -25t-18.5 -20.5t-12.5 -14q-13 -15 -54 -64t-53 -63h303l-26 -102h-498z" />
<glyph unicode="&#xb3;" horiz-adv-x="598" d="M20 707l52 94q9 -7 24 -17t57.5 -28.5t79.5 -22.5q39 -3 72 2q53 8 91 43t38 94q0 64 -46 101t-116 37q-35 0 -59 -4l18 86q63 2 115.5 37.5t52.5 101.5q0 49 -38 79.5t-91 30.5q-73 0 -157 -65l-54 84q28 28 86 57t125 29q90 0 161 -58.5t71 -154.5q0 -113 -92 -172 q14 -3 33.5 -15.5t41.5 -34.5t37 -60t15 -83q0 -111 -78.5 -178t-192.5 -67q-121 0 -246 84z" />
<glyph unicode="&#xb4;" horiz-adv-x="583" d="M143 1044l195 287h102l-194 -287h-103z" />
<glyph unicode="&#xb5;" d="M174 -358v1259h102v-461q0 -72 4.5 -123t18 -98t37.5 -75.5t63.5 -45t94.5 -16.5q43 0 86 9t64 17l22 9v784h102v-860q-18 -7 -48 -17t-108.5 -27t-140.5 -17q-125 0 -195 77v-415h-102z" />
<glyph unicode="&#xb6;" horiz-adv-x="860" d="M61 1065q0 153 108 261t261 108h102v-1680h-102v942q-153 0 -261 108t-108 261zM655 -246v1680h103v-1680h-103z" />
<glyph unicode="&#xb7;" horiz-adv-x="659" d="M205 498v250h250v-250h-250z" />
<glyph unicode="&#xb8;" horiz-adv-x="563" d="M143 -336l27 55q54 -36 98 -36q36 0 64 23.5t28 62.5q0 35 -20 56t-53 21q-61 0 -109 -41l29 195h63l-16 -104q20 6 47 6q54 0 86.5 -38t32.5 -95q0 -60 -42.5 -102t-109.5 -42q-29 0 -60.5 9.5t-47.5 19.5z" />
<glyph unicode="&#xb9;" horiz-adv-x="423" d="M61 1286v100l250 48v-799h-104v678z" />
<glyph unicode="&#xba;" horiz-adv-x="790" d="M102 1147q0 132 83.5 219.5t209.5 87.5q127 0 210 -87.5t83 -219.5t-83 -219.5t-210 -87.5q-126 0 -209.5 87.5t-83.5 219.5zM184 1147q0 -93 59 -159t152 -66q94 0 152.5 65.5t58.5 159.5t-58.5 159.5t-152.5 65.5q-93 0 -152 -66t-59 -159z" />
<glyph unicode="&#xbb;" horiz-adv-x="761" d="M82 170l158 281l-158 280l55 78l205 -358l-205 -359zM338 170l158 281l-158 280l55 78l205 -358l-205 -359z" />
<glyph unicode="&#xbc;" horiz-adv-x="1130" d="M61 1286v100l250 48v-799h-104v678zM166 -31l594 1495h112l-593 -1495h-113zM551 184l180 547l82 -61l-125 -383h197v512h100v-512h125l-25 -103h-100v-184h-100v184h-334z" />
<glyph unicode="&#xbd;" horiz-adv-x="1292" d="M61 1286v100l250 48v-799h-104v678zM166 -31l594 1495h112l-593 -1495h-113zM707 0h497l27 102h-303q13 14 53.5 63.5t52.5 63.5q1 1 12.5 14t18.5 20.5t21.5 25t24 30.5t23.5 33.5t23.5 38t20.5 39.5t17.5 42.5t10.5 43.5t4 45q0 46 -15.5 89.5t-45 80t-79 58.5 t-112.5 22q-50 0 -93.5 -18.5t-70 -45.5t-46 -54t-27.5 -45l-8 -19l94 -54q5 14 14.5 31.5t28 43t48.5 42.5t65 17q59 0 100 -42.5t41 -105.5q0 -32 -9.5 -63t-34.5 -68t-44 -61.5t-60 -73.5q-91 -106 -249 -295z" />
<glyph unicode="&#xbe;" horiz-adv-x="1316" d="M20 707q125 -84 246 -84q114 0 192.5 67t78.5 178q0 45 -15 83t-37 60t-41.5 34.5t-33.5 15.5q92 59 92 172q0 96 -71 154.5t-161 58.5q-67 0 -125 -29t-86 -57l54 -84q84 65 157 65q53 0 91 -30.5t38 -79.5q0 -66 -52.5 -101.5t-115.5 -37.5l-18 -86q24 4 59 4 q70 0 116 -37t46 -101q0 -59 -38 -94t-91 -43q-33 -5 -72 -2q-37 4 -77.5 21t-61.5 32l-22 15zM328 -31l594 1495h112l-594 -1495h-112zM737 184l181 547l81 -61l-125 -383h197v512h100v-512h125l-24 -103h-101v-184h-100v184h-334z" />
<glyph unicode="&#xbf;" horiz-adv-x="604" d="M72 276q0 82 29.5 153.5t71.5 122.5t84 98t71.5 100.5t29.5 109.5q0 134 -133 184l51 82q185 -80 185 -266q0 -62 -21.5 -117t-53 -93.5t-69 -81.5t-69 -81.5t-53 -93.5t-21.5 -117q0 -103 79 -155.5t208 -52.5l-31 -99q-56 0 -107.5 11t-97.5 35.5t-80 59.5t-53.5 86.5 t-19.5 114.5zM225 1219v215h144v-215h-144z" />
<glyph unicode="&#xc0;" horiz-adv-x="1208" d="M10 0l594 1464l594 -1464h-113l-237 584h-490l-235 -584h-113zM358 1843h103l194 -287h-102zM397 676h414l-207 510z" />
<glyph unicode="&#xc1;" horiz-adv-x="1208" d="M10 0l594 1464l594 -1464h-113l-237 584h-490l-235 -584h-113zM397 676h414l-207 510zM547 1556l194 287h103l-195 -287h-102z" />
<glyph unicode="&#xc2;" horiz-adv-x="1208" d="M10 0l594 1464l594 -1464h-113l-237 584h-490l-235 -584h-113zM358 1556l195 287h102l195 -287h-102l-144 211l-143 -211h-103zM397 676h414l-207 510z" />
<glyph unicode="&#xc3;" horiz-adv-x="1208" d="M10 0l594 1464l594 -1464h-113l-237 584h-490l-235 -584h-113zM317 1599q73 142 185 142q43 0 78.5 -18t66.5 -36t64 -18q28 0 52 19t30 47l102 -15q-19 -67 -73.5 -105t-110.5 -38q-39 0 -69.5 11.5t-46.5 24.5t-40.5 24.5t-52.5 11.5q-22 0 -46.5 -18t-35.5 -48z M397 676h414l-207 510z" />
<glyph unicode="&#xc4;" horiz-adv-x="1208" d="M10 0l594 1464l594 -1464h-113l-237 584h-490l-235 -584h-113zM276 1260v174h97v-174h-97zM397 676h414l-207 510zM836 1260v174h96v-174h-96z" />
<glyph unicode="&#xc5;" horiz-adv-x="1208" d="M10 0l570 1405q-60 8 -100 53.5t-40 108.5q0 67 48 115.5t116 48.5q69 0 116.5 -48t47.5 -116q0 -63 -39.5 -108.5t-99.5 -53.5l569 -1405h-113l-237 584h-490l-235 -584h-113zM397 676h414l-207 510zM512 1567q0 -38 27 -65t65 -27t65 27t27 65t-27 65t-65 27t-65 -27 t-27 -65z" />
<glyph unicode="&#xc6;" horiz-adv-x="1525" d="M-41 0l809 1434h655v-93h-553v-604h574v-92h-574v-553h574v-92h-676v584h-369l-327 -584h-113zM451 676h317v563z" />
<glyph unicode="&#xc7;" horiz-adv-x="1175" d="M72 717q0 109 27.5 215.5t84 202.5t135.5 169t190 116.5t239 43.5q188 0 335 -75l-39 -105q-117 70 -296 70q-123 0 -230 -54.5t-179.5 -143.5t-113.5 -203.5t-41 -235.5q0 -171 72 -316.5t205 -234t297 -88.5q66 0 137.5 21.5t109.5 40.5t91 50l39 -104 q-196 -117 -377 -117q-5 0 -16.5 1t-16.5 1l-10 -75q20 6 47 6q54 0 86.5 -38t32.5 -95q0 -60 -42.5 -102t-109.5 -42q-29 0 -60.5 9.5t-48.5 19.5l-16 10l27 55q54 -36 98 -36q36 0 64 23.5t28 62.5q0 35 -20 56t-53 21q-61 0 -109 -41l25 170q-139 17 -252.5 86t-187 171 t-113 227t-39.5 258z" />
<glyph unicode="&#xc8;" d="M184 0v1434h656v-93h-553v-604h573v-92h-573v-553h573v-92h-676zM348 1843h103l194 -287h-102z" />
<glyph unicode="&#xc9;" d="M184 0v1434h656v-93h-553v-604h573v-92h-573v-553h573v-92h-676zM369 1556l194 287h103l-195 -287h-102z" />
<glyph unicode="&#xca;" d="M184 0v1434h656v-93h-553v-604h573v-92h-573v-553h573v-92h-676zM276 1556l195 287h102l195 -287h-102l-144 211l-143 -211h-103z" />
<glyph unicode="&#xcb;" d="M184 0v1434h656v-93h-553v-604h573v-92h-573v-553h573v-92h-676zM348 1577v174h96v-174h-96zM600 1577v174h96v-174h-96z" />
<glyph unicode="&#xcc;" horiz-adv-x="475" d="M-20 1843h102l194 -287h-102zM184 0v1434h107v-1434h-107z" />
<glyph unicode="&#xcd;" horiz-adv-x="475" d="M184 0v1434h107v-1434h-107zM184 1556l195 287h102l-194 -287h-103z" />
<glyph unicode="&#xce;" horiz-adv-x="475" d="M-10 1556l194 287h103l194 -287h-102l-143 211l-144 -211h-102zM184 0v1434h107v-1434h-107z" />
<glyph unicode="&#xcf;" horiz-adv-x="475" d="M29 1260v174h96v-174h-96zM184 0v1434h107v-1434h-107zM350 1260v174h96v-174h-96z" />
<glyph unicode="&#xd0;" horiz-adv-x="1236" d="M-41 795l23 106h227v533h102q142 0 259 -18t230.5 -67t191.5 -127t125.5 -206.5t47.5 -298.5t-47.5 -298.5t-125.5 -206.5t-191.5 -127t-230.5 -67t-259 -18h-102v795h-250zM311 102q79 0 148.5 6t147.5 23t141 45t122.5 75.5t100 110.5t64.5 153.5t24 201.5t-24 201.5 t-64.5 153t-100 110t-122.5 75.5t-141 45t-147.5 23t-148.5 6v-430h250l-18 -106h-232v-693z" />
<glyph unicode="&#xd1;" horiz-adv-x="1413" d="M184 0v1464l942 -1206v1176h103v-1465l-942 1207v-1176h-103zM418 1599q73 142 184 142q43 0 78.5 -18t66.5 -36t64 -18q28 0 52 19t30 47l102 -15q-19 -67 -73.5 -105t-110.5 -38q-39 0 -69.5 11.5t-46.5 24.5t-40.5 24.5t-52.5 11.5q-22 0 -46.5 -18t-35.5 -48z" />
<glyph unicode="&#xd2;" horiz-adv-x="1556" d="M72 717q0 108 30.5 215t91.5 202.5t144.5 169.5t197.5 117t242 43q159 0 295 -66t224.5 -173t138 -239.5t49.5 -268.5q0 -108 -30.5 -215.5t-92 -203.5t-145 -169.5t-197.5 -116.5t-242 -43t-242 43.5t-197.5 117t-144.5 169.5t-91.5 203t-30.5 215zM184 717 q0 -120 46 -235.5t124 -204t189.5 -143t234.5 -54.5t234.5 54.5t189.5 143t124 204t46 235.5t-46 235.5t-124 204t-189.5 143t-234.5 54.5t-234.5 -54.5t-189.5 -143t-124 -204t-46 -235.5zM543 1843h102l195 -287h-103z" />
<glyph unicode="&#xd3;" horiz-adv-x="1556" d="M72 717q0 108 30.5 215t91.5 202.5t144.5 169.5t197.5 117t242 43q159 0 295 -66t224.5 -173t138 -239.5t49.5 -268.5q0 -108 -30.5 -215.5t-92 -203.5t-145 -169.5t-197.5 -116.5t-242 -43t-242 43.5t-197.5 117t-144.5 169.5t-91.5 203t-30.5 215zM184 717 q0 -120 46 -235.5t124 -204t189.5 -143t234.5 -54.5t234.5 54.5t189.5 143t124 204t46 235.5t-46 235.5t-124 204t-189.5 143t-234.5 54.5t-234.5 -54.5t-189.5 -143t-124 -204t-46 -235.5zM727 1556l195 287h102l-195 -287h-102z" />
<glyph unicode="&#xd4;" horiz-adv-x="1556" d="M72 717q0 108 30.5 215t91.5 202.5t144.5 169.5t197.5 117t242 43q159 0 295 -66t224.5 -173t138 -239.5t49.5 -268.5q0 -108 -30.5 -215.5t-92 -203.5t-145 -169.5t-197.5 -116.5t-242 -43t-242 43.5t-197.5 117t-144.5 169.5t-91.5 203t-30.5 215zM184 717 q0 -120 46 -235.5t124 -204t189.5 -143t234.5 -54.5t234.5 54.5t189.5 143t124 204t46 235.5t-46 235.5t-124 204t-189.5 143t-234.5 54.5t-234.5 -54.5t-189.5 -143t-124 -204t-46 -235.5zM532 1556l195 287h102l195 -287h-102l-144 211l-143 -211h-103z" />
<glyph unicode="&#xd5;" horiz-adv-x="1556" d="M72 717q0 108 30.5 215t91.5 202.5t144.5 169.5t197.5 117t242 43q159 0 295 -66t224.5 -173t138 -239.5t49.5 -268.5q0 -108 -30.5 -215.5t-92 -203.5t-145 -169.5t-197.5 -116.5t-242 -43t-242 43.5t-197.5 117t-144.5 169.5t-91.5 203t-30.5 215zM184 717 q0 -120 46 -235.5t124 -204t189.5 -143t234.5 -54.5t234.5 54.5t189.5 143t124 204t46 235.5t-46 235.5t-124 204t-189.5 143t-234.5 54.5t-234.5 -54.5t-189.5 -143t-124 -204t-46 -235.5zM492 1599q73 142 184 142q43 0 78.5 -18t66.5 -36t64 -18q28 0 52 19t30 47 l102 -15q-19 -67 -73.5 -105t-110.5 -38q-39 0 -69.5 11.5t-46.5 24.5t-40.5 24.5t-52.5 11.5q-22 0 -46.5 -18t-35.5 -48z" />
<glyph unicode="&#xd6;" horiz-adv-x="1556" d="M72 717q0 108 30.5 215t91.5 202.5t144.5 169.5t197.5 117t242 43q159 0 295 -66t224.5 -173t138 -239.5t49.5 -268.5q0 -108 -30.5 -215.5t-92 -203.5t-145 -169.5t-197.5 -116.5t-242 -43t-242 43.5t-197.5 117t-144.5 169.5t-91.5 203t-30.5 215zM92 1270v164h92v-164 h-92zM184 717q0 -120 46 -235.5t124 -204t189.5 -143t234.5 -54.5t234.5 54.5t189.5 143t124 204t46 235.5t-46 235.5t-124 204t-189.5 143t-234.5 54.5t-234.5 -54.5t-189.5 -143t-124 -204t-46 -235.5zM1372 1270v164h92v-164h-92z" />
<glyph unicode="&#xd7;" horiz-adv-x="1003" d="M154 276l276 277l-276 276l71 72l277 -276l276 276l72 -72l-277 -276l277 -277l-72 -71l-276 276l-277 -276z" />
<glyph unicode="&#xd8;" horiz-adv-x="1556" d="M72 717q0 108 30.5 215t91.5 202.5t144.5 169.5t197.5 117t242 43q139 0 260 -51l62 133l102 -47l-63 -137q162 -102 254 -279t92 -366q0 -108 -30.5 -215.5t-92 -203.5t-145 -169.5t-197.5 -116.5t-242 -43q-140 0 -264 51l-63 -133l-103 47l66 138q-160 102 -251 278.5 t-91 366.5zM184 717q0 -158 76 -304t205 -235l526 1131q-102 45 -213 45q-123 0 -234.5 -54.5t-189.5 -143t-124 -204t-46 -235.5zM563 123q98 -43 215 -43q123 0 234.5 54.5t189.5 143t124 204t46 235.5q0 158 -76.5 303.5t-205.5 234.5z" />
<glyph unicode="&#xd9;" horiz-adv-x="1249" d="M164 481v953h102v-912q0 -227 98 -338.5t261 -111.5t260.5 111.5t97.5 338.5v912h102v-953q0 -140 -52 -255t-158 -186t-250 -71q-108 0 -196.5 41t-145.5 111.5t-88 163t-31 196.5zM475 1843h103l194 -287h-102z" />
<glyph unicode="&#xda;" horiz-adv-x="1249" d="M164 481v953h102v-912q0 -227 98 -338.5t261 -111.5t260.5 111.5t97.5 338.5v912h102v-953q0 -140 -52 -255t-158 -186t-250 -71q-108 0 -196.5 41t-145.5 111.5t-88 163t-31 196.5zM475 1556l195 287h102l-194 -287h-103z" />
<glyph unicode="&#xdb;" horiz-adv-x="1249" d="M164 481v953h102v-912q0 -227 98 -338.5t261 -111.5t260.5 111.5t97.5 338.5v912h102v-953q0 -140 -52 -255t-158 -186t-250 -71q-108 0 -196.5 41t-145.5 111.5t-88 163t-31 196.5zM377 1556l194 287h103l194 -287h-102l-143 211l-144 -211h-102z" />
<glyph unicode="&#xdc;" horiz-adv-x="1249" d="M164 481v953h102v-912q0 -227 98 -338.5t261 -111.5t260.5 111.5t97.5 338.5v912h102v-953q0 -140 -52 -255t-158 -186t-250 -71q-108 0 -196.5 41t-145.5 111.5t-88 163t-31 196.5zM451 1260v174h96v-174h-96zM702 1260v174h97v-174h-97z" />
<glyph unicode="&#xdd;" horiz-adv-x="993" d="M20 1434h119l357 -676l362 676h113l-418 -791v-643h-113v643zM379 1556l194 287h103l-195 -287h-102z" />
<glyph unicode="&#xde;" d="M184 0v1434h103v-390h266q134 0 231 -97t97 -230t-97.5 -230.5t-230.5 -97.5h-266v-389h-103zM287 492h266q92 0 158.5 66.5t66.5 158.5t-66.5 158.5t-158.5 66.5h-266v-450z" />
<glyph unicode="&#xdf;" horiz-adv-x="1146" d="M174 799l62 102v82q0 130 39 235.5t119.5 170.5t189.5 65q103 0 178 -32.5t114.5 -88t57.5 -117t18 -131.5q0 -102 -50 -185t-124 -122q32 -7 64.5 -21.5t72 -45t69.5 -71.5t50.5 -106.5t20.5 -144.5q0 -82 -23.5 -155t-69.5 -130t-119.5 -90.5t-166.5 -33.5 q-47 0 -110 14.5t-95 36.5v112q50 -29 96 -45t109 -16q83 0 147.5 45t96.5 114t32 148q0 87 -38 154t-96 103t-115.5 53.5t-108.5 17.5v102q95 0 175.5 80.5t80.5 185.5q0 124 -63.5 195.5t-202.5 71.5q-107 0 -176.5 -93.5t-69.5 -275.5v-983h-102v799h-62z" />
<glyph unicode="&#xe0;" horiz-adv-x="1120" d="M92 451q0 200 127 335.5t318 135.5q80 0 165.5 -32.5t141.5 -90.5v102h102v-901h-102v82q-102 -102 -307 -102q-191 0 -318 135.5t-127 335.5zM205 451q0 -152 94 -260.5t238 -108.5q194 0 307 133v440q-59 77 -140.5 120.5t-166.5 43.5q-144 0 -238 -108t-94 -260z M297 1331h102l195 -287h-102z" />
<glyph unicode="&#xe1;" horiz-adv-x="1120" d="M92 451q0 200 127 335.5t318 135.5q80 0 165.5 -32.5t141.5 -90.5v102h102v-901h-102v82q-102 -102 -307 -102q-191 0 -318 135.5t-127 335.5zM205 451q0 -152 94 -260.5t238 -108.5q194 0 307 133v440q-59 77 -140.5 120.5t-166.5 43.5q-144 0 -238 -108t-94 -260z M492 1044l194 287h102l-194 -287h-102z" />
<glyph unicode="&#xe2;" horiz-adv-x="1120" d="M92 451q0 200 127 335.5t318 135.5q80 0 165.5 -32.5t141.5 -90.5v102h102v-901h-102v82q-102 -102 -307 -102q-191 0 -318 135.5t-127 335.5zM205 451q0 -152 94 -260.5t238 -108.5q194 0 307 133v440q-59 77 -140.5 120.5t-166.5 43.5q-144 0 -238 -108t-94 -260z M293 1044l194 287h103l194 -287h-102l-143 211l-144 -211h-102z" />
<glyph unicode="&#xe3;" horiz-adv-x="1120" d="M92 451q0 200 127 335.5t318 135.5q80 0 165.5 -32.5t141.5 -90.5v102h102v-901h-102v82q-102 -102 -307 -102q-191 0 -318 135.5t-127 335.5zM205 451q0 -152 94 -260.5t238 -108.5q194 0 307 133v440q-59 77 -140.5 120.5t-166.5 43.5q-144 0 -238 -108t-94 -260z M256 1087q73 142 184 142q43 0 78.5 -18t66.5 -36t64 -18q28 0 52 19t30 47l103 -15q-19 -67 -74 -105t-111 -38q-39 0 -69.5 11.5t-46.5 24.5t-40.5 24.5t-52.5 11.5q-22 0 -46.5 -18t-35.5 -48z" />
<glyph unicode="&#xe4;" horiz-adv-x="1120" d="M92 451q0 200 127 335.5t318 135.5q80 0 165.5 -32.5t141.5 -90.5v102h102v-901h-102v82q-102 -102 -307 -102q-191 0 -318 135.5t-127 335.5zM205 451q0 -152 94 -260.5t238 -108.5q194 0 307 133v440q-59 77 -140.5 120.5t-166.5 43.5q-144 0 -238 -108t-94 -260z M358 1065v174h97v-174h-97zM610 1065v174h97v-174h-97z" />
<glyph unicode="&#xe5;" horiz-adv-x="1120" d="M92 451q0 200 127 335.5t318 135.5q80 0 165.5 -32.5t141.5 -90.5v102h102v-901h-102v82q-102 -102 -307 -102q-191 0 -318 135.5t-127 335.5zM205 451q0 -152 94 -260.5t238 -108.5q194 0 307 133v440q-59 77 -140.5 120.5t-166.5 43.5q-144 0 -238 -108t-94 -260z M369 1188q0 68 48 116t115 48q69 0 116.5 -48t47.5 -116q0 -69 -47.5 -116.5t-116.5 -47.5q-68 0 -115.5 47.5t-47.5 116.5zM440 1188q0 -38 27 -65t65 -27t65.5 27t27.5 65t-27.5 65t-65.5 27t-65 -27t-27 -65z" />
<glyph unicode="&#xe6;" horiz-adv-x="1816" d="M92 451q0 200 127 335.5t318 135.5q80 0 165.5 -32.5t141.5 -90.5v102h102v-137q125 158 338 158t326.5 -119t113.5 -311v-82h-768q0 -39 10 -81.5t35 -87t61 -79.5t94 -57.5t128 -22.5q111 0 209.5 39.5t148.5 83.5l31 -99q-51 -45 -155 -85.5t-234 -40.5 q-213 0 -338 155v-135h-102v82q-102 -102 -307 -102q-191 0 -318 135.5t-127 335.5zM205 451q0 -152 94 -260.5t238 -108.5q194 0 307 133v440q-59 77 -140.5 120.5t-166.5 43.5q-144 0 -238 -108t-94 -260zM956 512h658q0 55 -20.5 108.5t-59.5 98.5t-104 72.5t-146 27.5 q-76 0 -141 -32t-104.5 -79.5t-61 -99.5t-21.5 -96z" />
<glyph unicode="&#xe7;" horiz-adv-x="880" d="M102 451q0 92 30 177t83.5 150t133.5 104.5t173 39.5q161 0 277 -93l-31 -102q-36 29 -58.5 44t-74 31.5t-113.5 16.5q-94 0 -168 -53t-111.5 -136.5t-37.5 -178.5t37.5 -178.5t111.5 -137t168 -53.5q77 0 149 28t117 64l31 -102q-19 -26 -104 -57.5t-183 -34.5l-12 -84 q20 6 47 6q54 0 86.5 -38t32.5 -95q0 -60 -42 -102t-109 -42q-29 0 -60.5 9.5t-48.5 19.5l-16 10l26 55q54 -36 99 -36q36 0 64 23.5t28 62.5q0 35 -20.5 56t-53.5 21q-61 0 -109 -41l27 179q-165 20 -267 155.5t-102 311.5z" />
<glyph unicode="&#xe8;" horiz-adv-x="1064" d="M92 451q0 129 51.5 235.5t153 171t235.5 64.5q213 0 327 -119t114 -311v-82h-768q0 -39 10 -81.5t34.5 -87t60.5 -79.5t94 -57.5t128 -22.5q111 0 210 39.5t149 83.5l31 -99q-51 -45 -155.5 -85.5t-234.5 -40.5q-134 0 -235.5 64.5t-153 171t-51.5 235.5zM205 512h657 q0 55 -20.5 108.5t-59.5 98.5t-104 72.5t-146 27.5q-62 0 -116.5 -21t-92 -54.5t-65 -74.5t-40.5 -81.5t-13 -75.5zM297 1331h102l195 -287h-102z" />
<glyph unicode="&#xe9;" horiz-adv-x="1064" d="M92 451q0 129 51.5 235.5t153 171t235.5 64.5q213 0 327 -119t114 -311v-82h-768q0 -39 10 -81.5t34.5 -87t60.5 -79.5t94 -57.5t128 -22.5q111 0 210 39.5t149 83.5l31 -99q-51 -45 -155.5 -85.5t-234.5 -40.5q-134 0 -235.5 64.5t-153 171t-51.5 235.5zM205 512h657 q0 55 -20.5 108.5t-59.5 98.5t-104 72.5t-146 27.5q-62 0 -116.5 -21t-92 -54.5t-65 -74.5t-40.5 -81.5t-13 -75.5zM492 1044l194 287h102l-194 -287h-102z" />
<glyph unicode="&#xea;" horiz-adv-x="1064" d="M92 451q0 129 51.5 235.5t153 171t235.5 64.5q213 0 327 -119t114 -311v-82h-768q0 -39 10 -81.5t34.5 -87t60.5 -79.5t94 -57.5t128 -22.5q111 0 210 39.5t149 83.5l31 -99q-51 -45 -155.5 -85.5t-234.5 -40.5q-134 0 -235.5 64.5t-153 171t-51.5 235.5zM205 512h657 q0 55 -20.5 108.5t-59.5 98.5t-104 72.5t-146 27.5q-62 0 -116.5 -21t-92 -54.5t-65 -74.5t-40.5 -81.5t-13 -75.5zM287 1044l194 287h103l194 -287h-102l-144 211l-143 -211h-102z" />
<glyph unicode="&#xeb;" horiz-adv-x="1064" d="M92 451q0 129 51.5 235.5t153 171t235.5 64.5q213 0 327 -119t114 -311v-82h-768q0 -39 10 -81.5t34.5 -87t60.5 -79.5t94 -57.5t128 -22.5q111 0 210 39.5t149 83.5l31 -99q-51 -45 -155.5 -85.5t-234.5 -40.5q-134 0 -235.5 64.5t-153 171t-51.5 235.5zM205 512h657 q0 55 -20.5 108.5t-59.5 98.5t-104 72.5t-146 27.5q-62 0 -116.5 -21t-92 -54.5t-65 -74.5t-40.5 -81.5t-13 -75.5zM358 1065v174h97v-174h-97zM610 1065v174h97v-174h-97z" />
<glyph unicode="&#xec;" horiz-adv-x="376" d="M-63 1331h102l194 -287h-102zM135 0v901h107v-901h-107z" />
<glyph unicode="&#xed;" horiz-adv-x="376" d="M135 0v901h107v-901h-107zM143 1044l195 287h102l-194 -287h-103z" />
<glyph unicode="&#xee;" horiz-adv-x="376" d="M-57 1044l194 287h103l194 -287h-102l-144 211l-143 -211h-102zM135 0v901h107v-901h-107z" />
<glyph unicode="&#xef;" horiz-adv-x="376" d="M12 1065v174h97v-174h-97zM135 0v901h107v-901h-107zM264 1065v174h96v-174h-96z" />
<glyph unicode="&#xf0;" horiz-adv-x="983" d="M92 406q0 182 113 302.5t287 120.5q134 0 215 -81l-164 290l-144 -96v102l103 68l-123 219h102q44 -72 97 -168l129 86v-102l-86 -57q184 -323 206 -385q7 -16 17.5 -43t28.5 -103t18 -141q0 -193 -112 -315.5t-285 -122.5q-174 0 -288 122t-114 304zM195 406 q0 -129 84.5 -224.5t212.5 -95.5t212 95.5t84 224.5q0 149 -82.5 233t-213.5 84q-129 0 -213 -94.5t-84 -222.5z" />
<glyph unicode="&#xf1;" horiz-adv-x="993" d="M174 0v901h102v-102q5 5 14.5 13.5t40 29.5t63 37t81.5 29.5t98 13.5q109 0 188 -85t79 -243v-594h-103v553q0 45 -4 79.5t-16.5 71t-34.5 60.5t-60 39.5t-90 15.5q-59 0 -123 -33.5t-99 -66.5l-34 -33v-686h-102zM215 1087q73 142 184 142q43 0 78.5 -18t66.5 -36 t64 -18q28 0 52 19t30 47l103 -15q-19 -67 -74 -105t-111 -38q-39 0 -69.5 11.5t-46.5 24.5t-40.5 24.5t-52.5 11.5q-22 0 -46.5 -18t-35.5 -48z" />
<glyph unicode="&#xf2;" horiz-adv-x="1069" d="M92 451q0 201 126 336t317 135t316.5 -135t125.5 -336t-125.5 -336t-316.5 -135t-317 135t-126 336zM199 451q0 -92 42.5 -176.5t121 -138.5t172.5 -54t172 54t120.5 138.5t42.5 176.5t-42.5 176t-120.5 138t-172 54t-172.5 -53.5t-121 -138t-42.5 -176.5zM276 1331h103 l194 -287h-102z" />
<glyph unicode="&#xf3;" horiz-adv-x="1069" d="M92 451q0 201 126 336t317 135t316.5 -135t125.5 -336t-125.5 -336t-316.5 -135t-317 135t-126 336zM199 451q0 -92 42.5 -176.5t121 -138.5t172.5 -54t172 54t120.5 138.5t42.5 176.5t-42.5 176t-120.5 138t-172 54t-172.5 -53.5t-121 -138t-42.5 -176.5zM471 1044 l195 287h102l-195 -287h-102z" />
<glyph unicode="&#xf4;" horiz-adv-x="1069" d="M92 451q0 201 126 336t317 135t316.5 -135t125.5 -336t-125.5 -336t-316.5 -135t-317 135t-126 336zM199 451q0 -92 42.5 -176.5t121 -138.5t172.5 -54t172 54t120.5 138.5t42.5 176.5t-42.5 176t-120.5 138t-172 54t-172.5 -53.5t-121 -138t-42.5 -176.5zM289 1044 l194 287h103l194 -287h-102l-143 211l-144 -211h-102z" />
<glyph unicode="&#xf5;" horiz-adv-x="1069" d="M92 451q0 201 126 336t317 135t316.5 -135t125.5 -336t-125.5 -336t-316.5 -135t-317 135t-126 336zM199 451q0 -92 42.5 -176.5t121 -138.5t172.5 -54t172 54t120.5 138.5t42.5 176.5t-42.5 176t-120.5 138t-172 54t-172.5 -53.5t-121 -138t-42.5 -176.5zM246 1087 q73 142 184 142q43 0 78.5 -18t66.5 -36t64 -18q28 0 52 19t30 47l102 -15q-19 -67 -73.5 -105t-110.5 -38q-39 0 -69.5 11.5t-46.5 24.5t-40.5 24.5t-52.5 11.5q-22 0 -46.5 -18t-35.5 -48z" />
<glyph unicode="&#xf6;" horiz-adv-x="1069" d="M92 451q0 201 126 336t317 135t316.5 -135t125.5 -336t-125.5 -336t-316.5 -135t-317 135t-126 336zM199 451q0 -92 42.5 -176.5t121 -138.5t172.5 -54t172 54t120.5 138.5t42.5 176.5t-42.5 176t-120.5 138t-172 54t-172.5 -53.5t-121 -138t-42.5 -176.5zM360 1065v174 h97v-174h-97zM612 1065v174h97v-174h-97z" />
<glyph unicode="&#xf7;" horiz-adv-x="962" d="M113 399l20 103h717l-21 -103h-716zM406 82v215h143v-215h-143zM406 604v215h143v-215h-143z" />
<glyph unicode="&#xf8;" horiz-adv-x="1069" d="M92 451q0 201 126 336t317 135q65 0 145 -25l55 117l105 -49l-56 -121q90 -62 141.5 -165t51.5 -228q0 -201 -125.5 -336t-316.5 -135q-76 0 -144 22l-53 -115l-105 50l54 116q-91 62 -143 166.5t-52 231.5zM199 451q0 -85 36.5 -164t100.5 -131l299 645q-47 18 -100 18 q-94 0 -172.5 -53.5t-121 -138t-42.5 -176.5zM436 98q50 -16 99 -16q94 0 172 54t120.5 138.5t42.5 176.5q0 83 -36 160.5t-99 131.5z" />
<glyph unicode="&#xf9;" horiz-adv-x="1003" d="M154 420v481h102v-440q0 -96 11 -162t39 -117t79.5 -75.5t128.5 -24.5q43 0 96 9t85 17l32 9v784h102v-860q-198 -61 -337 -61q-156 0 -247 106.5t-91 333.5zM344 1331h102l195 -287h-102z" />
<glyph unicode="&#xfa;" horiz-adv-x="1003" d="M154 420v481h102v-440q0 -96 11 -162t39 -117t79.5 -75.5t128.5 -24.5q43 0 96 9t85 17l32 9v784h102v-860q-198 -61 -337 -61q-156 0 -247 106.5t-91 333.5zM346 1044l195 287h102l-194 -287h-103z" />
<glyph unicode="&#xfb;" horiz-adv-x="1003" d="M154 420v481h102v-440q0 -96 11 -162t39 -117t79.5 -75.5t128.5 -24.5q43 0 96 9t85 17l32 9v784h102v-860q-198 -61 -337 -61q-156 0 -247 106.5t-91 333.5zM246 1044l194 287h103l194 -287h-102l-143 211l-144 -211h-102z" />
<glyph unicode="&#xfc;" horiz-adv-x="1003" d="M154 420v481h102v-440q0 -96 11 -162t39 -117t79.5 -75.5t128.5 -24.5q43 0 96 9t85 17l32 9v784h102v-860q-198 -61 -337 -61q-156 0 -247 106.5t-91 333.5zM317 1065v174h97v-174h-97zM569 1065v174h97v-174h-97z" />
<glyph unicode="&#xfd;" horiz-adv-x="845" d="M20 901h109l297 -696l297 696h102l-544 -1259h-103l193 446zM279 1044l194 287h102l-194 -287h-102z" />
<glyph unicode="&#xfe;" horiz-adv-x="1064" d="M174 -358v1792h102v-594q113 82 256 82q191 0 316 -135t125 -336t-125 -336t-316 -135q-149 0 -256 81v-419h-102zM276 201q43 -57 112.5 -88t143.5 -31q94 0 173 54t122 138.5t43 176.5t-43 176.5t-122 138t-173 53.5q-75 0 -144 -31.5t-112 -89.5v-497z" />
<glyph unicode="&#xff;" horiz-adv-x="845" d="M20 901h109l297 -696l297 696h102l-544 -1259h-103l193 446zM252 1065v174h96v-174h-96zM504 1065v174h96v-174h-96z" />
<glyph unicode="&#x152;" horiz-adv-x="2142" d="M72 717q0 108 30.5 215t91.5 202.5t144.5 169.5t197.5 117t242 43q202 0 357.5 -100t248.5 -266v336h656v-93h-553v-604h573v-92h-573v-553h573v-92h-676v334q-93 -165 -249 -265t-357 -100q-128 0 -242 43.5t-197.5 117t-144.5 169.5t-91.5 203t-30.5 215zM184 717 q0 -120 46 -235.5t124 -204t189.5 -143t234.5 -54.5t234.5 54.5t189.5 143t124 204t46 235.5t-46 235.5t-124 204t-189.5 143t-234.5 54.5t-234.5 -54.5t-189.5 -143t-124 -204t-46 -235.5z" />
<glyph unicode="&#x153;" horiz-adv-x="1843" d="M92 451q0 201 124.5 336t315.5 135q128 0 230.5 -65.5t157.5 -176.5q55 111 155.5 176.5t235.5 65.5q96 0 171.5 -26t125.5 -71.5t82.5 -110.5t46.5 -140t14 -164h-768q0 -39 10 -81.5t35 -87t61 -79.5t94 -57.5t128 -22.5q111 0 209.5 39.5t148.5 83.5l31 -99 q-51 -45 -155 -85.5t-234 -40.5q-135 0 -235.5 64.5t-155.5 174.5q-55 -110 -157 -174.5t-231 -64.5q-191 0 -315.5 135t-124.5 336zM195 451q0 -92 43 -176.5t121.5 -138.5t172.5 -54t173 54t122 138.5t43 176.5t-43 176.5t-122 138t-173 53.5t-172.5 -53.5t-121.5 -138 t-43 -176.5zM983 512h651q0 56 -19.5 109t-57 98t-101.5 72.5t-145 27.5q-76 0 -141 -32t-104.5 -79.5t-61 -99.5t-21.5 -96z" />
<glyph unicode="&#x178;" horiz-adv-x="993" d="M20 1434h119l357 -676l362 676h113l-418 -791v-643h-113v643zM352 1577v174h97v-174h-97zM604 1577v174h96v-174h-96z" />
<glyph unicode="&#x2c6;" horiz-adv-x="778" d="M143 1044l195 287h102l195 -287h-103l-143 211l-143 -211h-103z" />
<glyph unicode="&#x2dc;" horiz-adv-x="864" d="M143 1087q73 142 185 142q43 0 78.5 -18t66.5 -36t64 -18q28 0 51.5 19t29.5 47l103 -15q-19 -67 -73.5 -105t-110.5 -38q-39 0 -69.5 11.5t-46.5 24.5t-40.5 24.5t-52.5 11.5q-22 0 -46.5 -18t-35.5 -48z" />
<glyph unicode="&#x2000;" horiz-adv-x="921" />
<glyph unicode="&#x2001;" horiz-adv-x="1843" />
<glyph unicode="&#x2002;" horiz-adv-x="921" />
<glyph unicode="&#x2003;" horiz-adv-x="1843" />
<glyph unicode="&#x2004;" horiz-adv-x="614" />
<glyph unicode="&#x2005;" horiz-adv-x="460" />
<glyph unicode="&#x2006;" horiz-adv-x="307" />
<glyph unicode="&#x2007;" horiz-adv-x="307" />
<glyph unicode="&#x2008;" horiz-adv-x="230" />
<glyph unicode="&#x2009;" horiz-adv-x="368" />
<glyph unicode="&#x200a;" horiz-adv-x="102" />
<glyph unicode="&#x2010;" horiz-adv-x="929" d="M164 481l22 107h580l-18 -107h-584z" />
<glyph unicode="&#x2011;" horiz-adv-x="929" d="M164 481l22 107h580l-18 -107h-584z" />
<glyph unicode="&#x2012;" horiz-adv-x="929" d="M164 481l22 107h580l-18 -107h-584z" />
<glyph unicode="&#x2013;" horiz-adv-x="819" d="M41 481l20 103h717l-20 -103h-717z" />
<glyph unicode="&#x2014;" horiz-adv-x="1536" d="M41 481l20 103h1434l-20 -103h-1434z" />
<glyph unicode="&#x2018;" horiz-adv-x="434" d="M123 1106q0 52 13.5 104.5t33.5 91t39.5 69.5t32.5 47l14 16l55 -52q-39 -64 -57 -118.5t-18 -126.5q0 -102 71 -236l-102 -61q-9 16 -22.5 43t-36.5 97.5t-23 125.5z" />
<glyph unicode="&#x2019;" horiz-adv-x="434" d="M123 891q39 65 57.5 120t18.5 126q0 99 -72 235l102 62q9 -16 22.5 -43.5t36.5 -98t23 -125.5q0 -82 -33.5 -163.5t-66.5 -122.5l-33 -41z" />
<glyph unicode="&#x201a;" horiz-adv-x="434" d="M123 -225q39 65 57.5 119.5t18.5 125.5q0 100 -72 236l102 61q9 -16 22.5 -43t36.5 -97.5t23 -125.5q0 -82 -33.5 -163.5t-66.5 -122.5l-33 -41z" />
<glyph unicode="&#x201c;" horiz-adv-x="669" d="M123 1106q0 52 13.5 104.5t33.5 91t39.5 69.5t32.5 47l14 16l55 -52q-39 -64 -57 -118.5t-18 -126.5q0 -102 71 -236l-102 -61q-9 16 -22.5 43t-36.5 97.5t-23 125.5zM358 1106q0 52 14 104.5t33.5 91t39 69.5t33.5 47l14 16l55 -52q-39 -65 -57.5 -119.5t-18.5 -125.5 q0 -100 72 -236l-103 -61q-9 16 -22.5 43t-36.5 97.5t-23 125.5z" />
<glyph unicode="&#x201d;" horiz-adv-x="669" d="M123 891q39 65 57.5 120t18.5 126q0 99 -72 235l102 62q9 -16 22.5 -43.5t36.5 -98t23 -125.5q0 -82 -33.5 -163.5t-66.5 -122.5l-33 -41zM358 891q39 65 57.5 120t18.5 126q0 99 -72 235l103 62q9 -16 22.5 -43.5t36.5 -98t23 -125.5q0 -82 -33.5 -163.5t-66.5 -122.5 l-33 -41z" />
<glyph unicode="&#x201e;" horiz-adv-x="669" d="M123 -225q39 65 57.5 119.5t18.5 125.5q0 100 -72 236l102 61q9 -16 22.5 -43t36.5 -97.5t23 -125.5q0 -82 -33.5 -163.5t-66.5 -122.5l-33 -41zM358 -225q39 65 57.5 119.5t18.5 125.5q0 100 -72 236l103 61q9 -16 22.5 -43t36.5 -97.5t23 -125.5q0 -82 -33.5 -163.5 t-66.5 -122.5l-33 -41z" />
<glyph unicode="&#x2022;" horiz-adv-x="659" d="M164 297v332h332v-332h-332z" />
<glyph unicode="&#x2026;" horiz-adv-x="1658" d="M225 0v215h144v-215h-144zM778 0v215h144v-215h-144zM1331 0v215h144v-215h-144z" />
<glyph unicode="&#x202f;" horiz-adv-x="368" />
<glyph unicode="&#x2039;" horiz-adv-x="505" d="M164 451l205 358l55 -78l-158 -280l158 -281l-55 -78z" />
<glyph unicode="&#x203a;" horiz-adv-x="505" d="M82 170l158 281l-158 280l55 78l205 -358l-205 -359z" />
<glyph unicode="&#x205f;" horiz-adv-x="460" />
<glyph unicode="&#x20ac;" horiz-adv-x="1144" d="M10 520l41 94h64q-2 23 -2 72q0 53 4 80h-107l41 94h82q25 108 80.5 200t138 162t197.5 110t250 40q187 0 336 -76l-39 -84q-114 68 -297 68q-201 0 -353 -118t-206 -302h508l-41 -94h-488q-4 -54 -4 -80q0 -49 4 -72h447l-41 -94h-389q53 -194 206 -321t357 -127 q185 0 297 67l39 -84q-147 -75 -336 -75q-136 0 -252.5 43t-199.5 117.5t-138.5 171t-79.5 208.5h-119z" />
<glyph unicode="&#x2122;" horiz-adv-x="1597" d="M143 1341v93h369v-93h-133v-706h-103v706h-133zM676 635v829l389 -542l389 542v-829h-102v522l-287 -399l-287 389v-512h-102z" />
<glyph unicode="&#x25fc;" horiz-adv-x="901" d="M0 0v901h901v-901h-901z" />
</font>
</defs>
</svg>
