<?xml version="1.0" standalone="no"?>
<!DOCTYPE svg PUBLIC "-//W3C//DTD SVG 1.1//EN" "http://www.w3.org/Graphics/SVG/1.1/DTD/svg11.dtd" >
<svg xmlns="http://www.w3.org/2000/svg">
<metadata></metadata>
<defs>
<font id="rundgroteskmedium" horiz-adv-x="1138" >
<font-face units-per-em="2048" ascent="1536" descent="-512" />
<missing-glyph horiz-adv-x="552" />
<glyph horiz-adv-x="0" />
<glyph horiz-adv-x="682" />
<glyph horiz-adv-x="0" />
<glyph horiz-adv-x="0" />
<glyph unicode="&#xd;" horiz-adv-x="552" />
<glyph unicode=" "  horiz-adv-x="552" />
<glyph unicode="&#x09;" horiz-adv-x="552" />
<glyph unicode="&#xa0;" horiz-adv-x="552" />
<glyph unicode="!" horiz-adv-x="548" d="M164 1434h225l-20 -1024h-185zM174 0h205v266h-205v-266z" />
<glyph unicode="&#x22;" horiz-adv-x="808" d="M154 922v512h184v-512h-184zM471 922v512h184v-512h-184z" />
<glyph unicode="#" horiz-adv-x="1245" d="M76 410l37 188h172l37 211h-177l37 188h172l76 437h188l-75 -437h256l75 437h191l-76 -437h180l-36 -188h-177l-36 -211h180l-35 -188h-176l-70 -410h-190l69 410h-256l-69 -410h-189l70 410h-178zM475 598h256l37 211h-256z" />
<glyph unicode="$" horiz-adv-x="942" d="M45 145l113 177q48 -40 79 -63t90 -49t113 -26q86 0 145.5 55.5t59.5 133.5q0 59 -31.5 106t-81.5 80t-111 64.5t-121.5 69t-110.5 84.5t-81.5 120.5t-31.5 167.5q0 147 85 251t212 136v217h170v-211q146 -29 270 -168l-106 -180q-119 143 -236 143q-75 0 -129.5 -50 t-54.5 -138q0 -46 19.5 -84t53 -65.5t76 -53t90.5 -50.5t95.5 -52.5t90 -63.5t76 -80t53 -106t19.5 -137q0 -81 -26 -149.5t-71 -116t-100.5 -78.5t-119.5 -45v-220h-170v209q-199 21 -328 172z" />
<glyph unicode="%" horiz-adv-x="1417" d="M147 1075q0 115 80.5 196t196.5 81q117 0 197.5 -80.5t80.5 -196.5q0 -117 -80.5 -196.5t-197.5 -79.5q-116 0 -196.5 79.5t-80.5 196.5zM178 0l846 1249h174l-846 -1249h-174zM270 1075q0 -66 44.5 -109.5t109.5 -43.5q66 0 110 43.5t44 109.5q0 65 -44 109.5t-110 44.5 q-64 0 -109 -44.5t-45 -109.5zM748 256q0 116 80 196t196 80q117 0 196.5 -80t79.5 -196q0 -117 -79.5 -196.5t-196.5 -79.5q-116 0 -196 79.5t-80 196.5zM870 256q0 -66 44 -110t110 -44q65 0 109.5 44t44.5 110q0 64 -45 109t-109 45q-66 0 -110 -44.5t-44 -109.5z" />
<glyph unicode="&#x26;" horiz-adv-x="1103" d="M45 379q0 251 281 409q-53 89 -68 191q-7 62 0 104q13 82 68 145.5t122.5 93.5t131.5 30q135 0 228 -89t93 -223q0 -60 -22.5 -110.5t-56.5 -80.5t-67 -48t-61 -23l-86 123q59 29 82 63q21 32 21 70q0 55 -38.5 94t-97.5 39q-44 0 -79.5 -29t-44.5 -69q-11 -33 -5 -72 q4 -34 19.5 -69.5t30 -58t39.5 -56.5l288 -414q32 47 51 115.5t19 124.5l186 47q0 -69 -39 -206t-102 -232l172 -248h-221q-7 11 -39.5 55t-42.5 60q-5 -6 -15 -16t-44.5 -35t-73 -44t-99 -35t-124.5 -16q-92 0 -171.5 39t-129 99.5t-77.5 132t-28 139.5zM250 379 q0 -92 56 -151.5t136 -69.5q48 -7 86 2q93 19 164 100q-43 64 -135.5 195t-126.5 180q-87 -37 -133.5 -107.5t-46.5 -148.5z" />
<glyph unicode="'" horiz-adv-x="565" d="M154 956q34 34 56.5 87.5t22.5 103.5q0 37 -13.5 74t-34 73t-21.5 37l143 103q38 -28 71.5 -101t33.5 -143q0 -56 -23.5 -115.5t-54.5 -101.5t-57 -70t-37 -33z" />
<glyph unicode="(" horiz-adv-x="946" d="M307 717q0 580 348 1044l144 -121q-303 -406 -303 -923t303 -926l-144 -119q-178 222 -263 490t-85 555z" />
<glyph unicode=")" horiz-adv-x="946" d="M147 -209q304 410 304 926q0 515 -304 923l144 121q348 -464 348 -1044q0 -287 -85 -555t-263 -490z" />
<glyph unicode="*" horiz-adv-x="755" d="M76 1004l182 116l-182 117l90 125l137 -105l-2 177h154l-4 -177l137 105l90 -125l-182 -117l182 -116l-90 -125l-137 104l4 -174h-154l2 174l-137 -104z" />
<glyph unicode="+" horiz-adv-x="987" d="M102 465l31 160h281v317h159v-317h312l-31 -160h-281v-318h-159v318h-312z" />
<glyph unicode="," horiz-adv-x="593" d="M102 -211q61 74 77 152.5t16 253.5v96h184v-51q0 -148 -13 -233.5t-53.5 -159t-122.5 -144.5z" />
<glyph unicode="-" horiz-adv-x="929" d="M154 440l41 176h581l-39 -176h-583z" />
<glyph unicode="." horiz-adv-x="604" d="M225 0v266h205v-266h-205z" />
<glyph unicode="/" horiz-adv-x="788" d="M10 -31l594 1495h174l-594 -1495h-174z" />
<glyph unicode="0" horiz-adv-x="1167" d="M117 666q0 188 52.5 341.5t160.5 249t254 95.5q145 0 252.5 -95.5t160 -249t52.5 -341.5t-52.5 -341.5t-160 -249t-252.5 -95.5q-146 0 -254 95.5t-160.5 249t-52.5 341.5zM322 666q0 -135 29.5 -244.5t90 -176.5t142.5 -67q81 0 141 67t89.5 176.5t29.5 244.5 t-29.5 243.5t-89.5 175t-141 66.5q-82 0 -142.5 -66.5t-90 -175t-29.5 -243.5z" />
<glyph unicode="1" horiz-adv-x="794" d="M117 1065v184l442 82v-1331h-192v1108z" />
<glyph unicode="2" horiz-adv-x="1093" d="M82 0l373 451q21 27 60 74.5t59.5 73t50.5 66t46 68.5t33 63.5t24 68.5t7 67q0 97 -63.5 163t-155.5 66q-44 0 -84 -18.5t-67 -44.5t-49 -59t-33 -56t-17 -41l-176 102q2 6 7 17.5t22.5 43.5t38.5 61t57 64.5t76 61t96.5 43t118.5 17.5q86 0 158.5 -24.5t121.5 -66 t83.5 -96t50.5 -113.5t16 -120q0 -36 -7 -74t-17 -71t-27.5 -70t-32.5 -65t-38 -62t-38 -54.5t-38 -48.5t-32.5 -39.5t-27.5 -31.5l-19 -21q-18 -20 -86 -103t-86 -104h484l-45 -188h-844z" />
<glyph unicode="3" horiz-adv-x="1064" d="M66 123l94 174q14 -11 37.5 -27t91.5 -46t129 -36q55 -9 110 -4q56 7 104.5 29.5t84 71t35.5 114.5q0 99 -70.5 157t-185.5 58q-38 0 -107 -6l31 154q48 2 94.5 15t88.5 38t67.5 68.5t25.5 99.5q0 78 -63.5 125t-140.5 47q-80 0 -150 -35t-113 -73l-102 155 q53 53 152.5 101.5t212.5 48.5q137 0 250.5 -84t134.5 -226q8 -52 2 -106q-20 -148 -140 -229q15 -4 37 -16t52 -38.5t54.5 -61t42 -88t17.5 -114.5q0 -123 -63.5 -217.5t-166.5 -143t-227 -48.5q-91 0 -180.5 27t-134 52t-104.5 64z" />
<glyph unicode="4" horiz-adv-x="1034" d="M35 297l297 922l153 -113l-198 -621h311v846h184v-846h205l-41 -188h-164v-297h-184v297h-563z" />
<glyph unicode="5" horiz-adv-x="1079" d="M92 123l96 164q17 -13 45 -33t104 -53t138 -33q50 0 100 16.5t94 48t71.5 85.5t27.5 122q0 116 -78.5 175t-197.5 59q-73 0 -146 -20t-117 -40t-45 -20l103 737h532l-37 -190h-352l-47 -312q100 21 158 21q195 0 305 -113.5t110 -296.5q0 -139 -66 -245.5t-174.5 -160.5 t-240.5 -54q-122 0 -232 51t-151 92z" />
<glyph unicode="6" horiz-adv-x="1079" d="M102 434q0 174 68 328q14 40 90 182t146 264l69 123h195l-291 -528q73 61 184 61q193 0 306.5 -124t113.5 -312q0 -121 -58 -223.5t-160 -163.5t-224 -61q-185 0 -312 132t-127 322zM291 428q0 -109 72 -183.5t180 -74.5q107 0 178.5 74.5t71.5 183.5q0 108 -71.5 182 t-178.5 74q-109 0 -180.5 -69t-71.5 -187z" />
<glyph unicode="7" horiz-adv-x="1007" d="M96 1130l51 201h789l-522 -1331h-211l450 1130h-557z" />
<glyph unicode="8" horiz-adv-x="1105" d="M106 373q0 115 57 204.5t165 143.5q-63 47 -98 85.5t-53.5 89.5t-18.5 122q0 60 24 117.5t70.5 107t124.5 79.5t176 30q97 0 174.5 -30t124 -79.5t70.5 -107t24 -117.5q0 -58 -12.5 -104t-38 -81.5t-51.5 -59t-66 -52.5q107 -54 163 -143t56 -205q0 -70 -29.5 -139 t-84 -126t-141 -92.5t-189.5 -35.5t-190 35.5t-142 92.5t-85 126t-30 139zM307 393q0 -94 71.5 -156.5t174.5 -62.5q102 0 174 63t72 156q0 59 -36 110t-82.5 79.5t-82.5 44.5t-45 16q-7 0 -32 -9.5t-61.5 -30t-70.5 -48.5t-58 -71t-24 -91zM352 999q0 -50 29 -91.5 t67.5 -63.5t67.5 -33.5t37 -11.5t36.5 11.5t66.5 33.5t67 63.5t29 91.5q0 75 -55.5 123.5t-143.5 48.5t-144.5 -48t-56.5 -124z" />
<glyph unicode="9" horiz-adv-x="997" d="M96 946q0 167 117 286.5t283 119.5q147 0 257 -96.5t132 -239.5q10 -68 2 -123q-2 -48 -29 -119l-295 -774h-205l213 563q-78 -19 -149 -8q-139 22 -232.5 133t-93.5 258zM287 946q0 -86 61 -150.5t148 -64.5q86 0 148.5 65t62.5 150q0 86 -61.5 150.5t-149.5 64.5 q-87 0 -148 -64.5t-61 -150.5z" />
<glyph unicode=":" horiz-adv-x="614" d="M225 0v266h205v-266h-205zM225 635v266h205v-266h-205z" />
<glyph unicode=";" horiz-adv-x="589" d="M123 -211q61 74 76.5 152t15.5 254v96h184v-51q0 -218 -35 -326t-153 -211zM213 635v266h186v-266h-186z" />
<glyph unicode="&#x3c;" horiz-adv-x="1003" d="M102 471v164l799 266v-164l-565 -184l565 -184v-164z" />
<glyph unicode="=" horiz-adv-x="1048" d="M102 307l31 158h762l-31 -158h-762zM154 625l30 157h762l-31 -157h-761z" />
<glyph unicode="&#x3e;" horiz-adv-x="1003" d="M102 205v164l566 184l-566 184v164l799 -266v-164z" />
<glyph unicode="?" horiz-adv-x="675" d="M133 1272l45 182q56 10 113 4q113 -14 196.5 -84.5t102.5 -204.5q8 -63 -2 -141q-11 -60 -46.5 -121t-70.5 -102t-63.5 -94.5t-28.5 -102.5q0 -51 31 -84.5t71 -48.5l-102 -123q-87 12 -144 81.5t-57 174.5q0 55 22 107t54 94t63.5 84.5t53.5 95t22 107.5q0 148 -170 172 q-37 4 -90 4zM256 0v266h205v-266h-205z" />
<glyph unicode="@" horiz-adv-x="1761" d="M143 578q0 117 31.5 229.5t95 211t151 173t207.5 117.5t257 43t256.5 -43t205.5 -117.5t148 -173t92.5 -211t30.5 -229.5q0 -201 -86 -305.5t-217 -104.5q-92 0 -151.5 28t-102.5 85q-32 -33 -98 -54.5t-134 -21.5q-157 0 -250.5 105t-93.5 263q0 159 93.5 265t250.5 106 q116 0 195 -86v70h160v-416q0 -96 38 -143t103 -47q66 0 104.5 67.5t38.5 188.5q0 117 -41 229t-114.5 201.5t-185.5 144.5t-242 55t-243.5 -55t-189 -144.5t-118.5 -202t-43 -228.5q0 -93 25.5 -183t76.5 -168.5t121.5 -138.5t166 -94.5t204.5 -34.5q221 0 379 141l100 -96 q-98 -93 -213 -140.5t-266 -47.5q-137 0 -257.5 42t-208 114.5t-150.5 169t-94.5 208t-31.5 228.5zM645 573q0 -95 56.5 -158t144.5 -63q128 0 178 105v227q-26 54 -73.5 83.5t-104.5 29.5q-88 0 -144.5 -64t-56.5 -160z" />
<glyph unicode="A" horiz-adv-x="1300" d="M4 0l584 1434h123l583 -1434h-215l-164 401h-532l-164 -401h-215zM463 596h375l-189 461z" />
<glyph unicode="B" horiz-adv-x="1064" d="M174 0v1434h168q167 0 282 -25.5t183.5 -78.5t98.5 -127.5t30 -178.5q0 -96 -40 -168.5t-114 -110.5q222 -100 222 -329q0 -191 -122 -303.5t-350 -112.5h-358zM383 199q17 0 49 1t49 1q151 2 236.5 56.5t85.5 158.5q0 105 -85.5 160t-236.5 57q-33 2 -98 2v-436z M383 813q17 0 47 1t45 1q127 1 194.5 56.5t67.5 152.5q0 51 -16.5 88t-45 60t-74 37t-97 19t-121.5 5v-420z" />
<glyph unicode="C" horiz-adv-x="1185" d="M66 717q0 117 31.5 227.5t93 204.5t146.5 164.5t198.5 110.5t242.5 40q187 0 340 -78l-59 -198q-119 72 -281 72q-142 0 -256 -77t-174.5 -200.5t-60.5 -265.5q0 -110 37 -209.5t101 -173.5t157 -118t200 -44q161 0 303 90l60 -196q-182 -97 -363 -97q-161 0 -297 61 t-227 163.5t-141.5 238t-50.5 285.5z" />
<glyph unicode="D" horiz-adv-x="1282" d="M174 0v1434h145q156 0 282 -18.5t243.5 -67.5t196.5 -128t126 -206.5t47 -296.5q0 -171 -45.5 -298.5t-122 -206.5t-192.5 -127.5t-241.5 -66.5t-284.5 -18h-154zM383 199q106 0 191.5 13t166.5 47.5t135.5 91.5t87.5 150t33 216q0 148 -46 252t-132 162t-192 83t-244 25 v-1040z" />
<glyph unicode="E" horiz-adv-x="976" d="M174 0v1434h696v-195h-487v-436h512v-195h-512v-413h512v-195h-721z" />
<glyph unicode="F" horiz-adv-x="956" d="M174 0v1434h696v-195h-487v-446h512v-195h-512v-598h-209z" />
<glyph unicode="G" horiz-adv-x="1581" d="M66 717q0 117 32.5 227.5t95.5 204.5t149.5 164.5t201 110.5t243.5 40q173 0 312 -70.5t237 -195.5l-145 -139q-77 98 -182 151.5t-222 53.5q-107 0 -201.5 -46.5t-159.5 -122.5t-102.5 -175t-37.5 -203q0 -139 63 -264t180 -205t258 -80q113 0 201.5 35.5t142 96 t81.5 132.5t30 152h-403v194h614q0 -401 -162 -605t-504 -204q-129 0 -243.5 40t-201 111t-149.5 165t-95.5 205t-32.5 227z" />
<glyph unicode="H" horiz-adv-x="1325" d="M174 0v1434h209v-625h559v625h209v-1434h-209v614h-559v-614h-209z" />
<glyph unicode="I" horiz-adv-x="559" d="M174 0v1434h211v-1434h-211z" />
<glyph unicode="J" horiz-adv-x="700" d="M14 1239l52 195h477v-1106q0 -251 -88.5 -411t-290.5 -275l-123 176q155 80 223 197.5t68 312.5v106v805h-318z" />
<glyph unicode="K" horiz-adv-x="1128" d="M174 0v1434h209v-684l457 684h229l-475 -748l514 -686h-248l-477 635v-635h-209z" />
<glyph unicode="L" horiz-adv-x="798" d="M174 0v1434h209v-1239h369v-195h-578z" />
<glyph unicode="M" horiz-adv-x="1648" d="M174 0v1434h139l510 -863l512 863h140v-1434h-211v942l-441 -737l-440 727v-932h-209z" />
<glyph unicode="N" horiz-adv-x="1454" d="M174 0v1434h139l756 -994v994h211v-1434h-139l-758 991v-991h-209z" />
<glyph unicode="O" horiz-adv-x="1587" d="M66 717q0 146 52.5 281.5t145.5 238.5t231 165t298 62q129 0 244 -40t202 -111t151 -165t97 -204.5t33 -226.5q0 -146 -52.5 -281.5t-145 -239t-231 -165.5t-298.5 -62q-108 0 -206.5 28.5t-177.5 79t-144 120.5t-108.5 153t-67 176.5t-23.5 190.5zM287 717 q0 -142 65 -267t182.5 -201.5t258.5 -76.5q142 0 260 77t182.5 201.5t64.5 266.5q0 105 -38.5 204t-104.5 174t-161.5 120t-202.5 45q-141 0 -258.5 -76.5t-182.5 -201t-65 -265.5z" />
<glyph unicode="P" horiz-adv-x="1024" d="M174 0v1434h145q337 0 495.5 -130t158.5 -405q0 -257 -149 -399t-441 -142v-358h-209zM383 557q68 0 117 8q258 49 258 334q0 340 -375 340v-682z" />
<glyph unicode="Q" horiz-adv-x="1587" d="M66 717q0 146 52.5 281.5t145.5 238.5t231 165t298 62q129 0 244 -40t202 -111t151 -165t97 -204.5t33 -226.5q0 -178 -78 -340t-215 -266l272 -152l-143 -149l-346 194q-100 -35 -217 -35q-108 0 -206.5 28.5t-177.5 79t-144 120.5t-108.5 153t-67 176.5t-23.5 190.5z M287 717q0 -142 65 -267t182.5 -201.5t258.5 -76.5q142 0 260 77t182.5 201.5t64.5 266.5q0 105 -38.5 204t-104.5 174t-161.5 120t-202.5 45q-141 0 -258.5 -76.5t-182.5 -201t-65 -265.5z" />
<glyph unicode="R" horiz-adv-x="1056" d="M174 0v1434h129q321 0 477 -117t156 -334q0 -153 -89 -255.5t-241 -147.5l434 -580h-252l-405 547v-547h-209zM383 735q48 0 91 5t92 21t83.5 42t58 72t23.5 108q0 55 -19.5 98t-51.5 70t-77.5 45t-94.5 25.5t-105 7.5v-494z" />
<glyph unicode="S" horiz-adv-x="942" d="M45 145l113 177q48 -40 79 -63t90 -49t113 -26q86 0 145.5 55.5t59.5 133.5q0 59 -31.5 106t-81.5 80t-111 64.5t-121.5 69t-110.5 84.5t-81.5 120.5t-31.5 167.5q0 118 58 211t147 140.5t188 47.5q190 0 344 -174l-106 -180q-119 143 -236 143q-75 0 -129.5 -50 t-54.5 -138q0 -46 19.5 -84t53 -65.5t76 -53t90.5 -50.5t95.5 -52.5t90 -63.5t76 -80t53 -106t19.5 -137q0 -98 -39 -178t-102 -127.5t-137 -73t-150 -25.5q-238 0 -387 176z" />
<glyph unicode="T" horiz-adv-x="833" d="M45 1239v195h743v-195h-266v-1239h-211v1239h-266z" />
<glyph unicode="U" horiz-adv-x="1341" d="M158 547v96v791h211v-856q0 -113 23.5 -195.5t66 -129t95 -68t116.5 -21.5t117 21.5t95.5 68t66.5 129t24 195.5v856h209v-887q0 -118 -28 -214.5t-75.5 -163t-113 -112.5t-140 -67t-155.5 -21t-155.5 21t-140 67t-113 112.5t-75.5 163t-28 214.5z" />
<glyph unicode="V" horiz-adv-x="1202" d="M20 1434h209l371 -1024l373 1024h209l-512 -1434h-140q-85 232 -265.5 744.5t-244.5 689.5z" />
<glyph unicode="W" horiz-adv-x="1581" d="M25 1434h211l253 -906l248 906h105q41 -146 133 -480t117 -426l254 906h210l-405 -1434h-123q-35 128 -118.5 446.5t-118.5 446.5q-40 -141 -124.5 -464t-113.5 -429h-123z" />
<glyph unicode="X" horiz-adv-x="1177" d="M35 0l444 770l-383 664h215l277 -480l276 480h215l-385 -664l447 -770h-215l-338 584l-338 -584h-215z" />
<glyph unicode="Y" horiz-adv-x="1075" d="M20 1434h218l299 -607l303 607h215l-410 -813v-621h-215v621z" />
<glyph unicode="Z" horiz-adv-x="1105" d="M82 0l635 1239h-553v195h864l-635 -1239h621v-195h-932z" />
<glyph unicode="[" horiz-adv-x="911" d="M307 -328v2089h492l47 -200h-340v-1690h340l-47 -199h-492z" />
<glyph unicode="\" horiz-adv-x="788" d="M10 1464h174l594 -1495h-174z" />
<glyph unicode="]" horiz-adv-x="911" d="M66 -129h337v1690h-337l47 200h491v-2089h-491z" />
<glyph unicode="^" horiz-adv-x="1146" d="M61 717l426 635h170l428 -635h-159l-353 520l-354 -520h-158z" />
<glyph unicode="_" horiz-adv-x="952" d="M35 -174l41 174h839l-41 -174h-839z" />
<glyph unicode="`" horiz-adv-x="638" d="M143 1331h162l191 -287h-158z" />
<glyph unicode="a" d="M82 451q0 201 120.5 336t321.5 135q70 0 141 -30.5t119 -78.5v88h191v-901h-191v76q-40 -45 -108 -70.5t-152 -25.5q-202 0 -322 134.5t-120 336.5zM276 451q0 -125 77 -211t192 -86q71 0 134 29.5t105 86.5v344q-43 62 -106.5 98t-132.5 36q-115 0 -192 -86t-77 -211z " />
<glyph unicode="b" horiz-adv-x="1099" d="M164 575v961h188v-702q49 42 114.5 65t131.5 23q199 0 309.5 -133.5t110.5 -337.5q0 -131 -54.5 -238t-158 -170t-238.5 -63q-187 0 -286 104.5t-111 294.5q-6 92 -6 196zM352 430q0 -123 59 -199.5t156 -76.5q115 0 188.5 84.5t73.5 212.5q0 126 -69.5 209t-186.5 83 q-111 0 -221 -98v-215z" />
<glyph unicode="c" horiz-adv-x="878" d="M86 451q0 202 129.5 336.5t321.5 134.5q151 0 274 -84l-63 -179q-47 42 -94.5 62t-116.5 20q-114 0 -187.5 -84t-73.5 -206q0 -123 73.5 -208t187.5 -85q117 0 221 82l63 -179q-42 -32 -119.5 -56.5t-164.5 -24.5q-192 0 -321.5 134.5t-129.5 336.5z" />
<glyph unicode="d" horiz-adv-x="1136" d="M82 451q0 201 119.5 336t320.5 135q78 0 146.5 -29.5t113.5 -79.5v723h191v-1536h-191v76q-40 -45 -108 -70.5t-152 -25.5q-134 0 -235.5 63.5t-153 169.5t-51.5 238zM276 451q0 -122 76.5 -209.5t190.5 -87.5q71 0 134 29.5t105 86.5v344q-43 62 -106.5 98t-132.5 36 q-113 0 -190 -88t-77 -209z" />
<glyph unicode="e" horiz-adv-x="1054" d="M82 451q0 97 29.5 181.5t85.5 149.5t145 102.5t201 37.5q188 0 298.5 -112.5t125.5 -301.5q6 -55 6 -119h-692q12 -93 80.5 -164t191.5 -71q104 0 189.5 34t117.5 64l72 -148q-16 -14 -42.5 -30t-75.5 -39.5t-121 -39t-150 -15.5q-209 0 -335 129t-126 342zM276 522h502 q0 93 -66.5 164.5t-185.5 71.5q-77 0 -136.5 -40t-86.5 -92.5t-27 -103.5z" />
<glyph unicode="f" horiz-adv-x="634" d="M96 727l92 174v72q0 218 90 336.5t269 154.5l31 -194q-101 -21 -150 -94t-49 -224v-51h199l-31 -174h-168v-1003l-191 -82v1085h-92z" />
<glyph unicode="g" horiz-adv-x="1136" d="M82 451q0 201 119.5 336t320.5 135q71 0 143.5 -30t116.5 -79v88h191v-887q0 -58 -12.5 -112t-41 -105.5t-71.5 -90t-109 -62t-147 -23.5q-82 0 -219 35l51 160q2 0 33.5 -7t61.5 -11.5t54 -4.5q64 0 105 19.5t61 58.5t26.5 81.5t6.5 104.5q-38 -33 -109 -55t-141 -22 q-134 0 -235.5 63.5t-153 169.5t-51.5 238zM276 451q0 -122 76.5 -209.5t190.5 -87.5q71 0 134 29.5t105 86.5v344q-43 62 -106.5 98t-132.5 36q-113 0 -190 -88t-77 -209z" />
<glyph unicode="h" horiz-adv-x="1044" d="M164 0v1536h188v-707q4 2 54.5 30t103 45.5t106.5 17.5q124 0 204.5 -88.5t80.5 -239.5v-594h-190v530q0 213 -168 213q-18 0 -37 -4t-37 -11.5t-33 -15t-30.5 -18t-24 -16.5t-19.5 -14l-10 -9v-655h-188z" />
<glyph unicode="i" horiz-adv-x="438" d="M123 0v901h192v-901h-192zM133 1079v242h172v-242h-172z" />
<glyph unicode="j" horiz-adv-x="428" d="M10 -180q60 33 82.5 94t22.5 174v813h188v-815q0 -57 -6 -106.5t-14 -86.5t-24.5 -69.5t-29.5 -54t-36 -41.5t-37.5 -31t-41.5 -23.5t-40.5 -17t-40.5 -14.5zM123 1079v242h172v-242h-172z" />
<glyph unicode="k" horiz-adv-x="974" d="M164 0v1536h188v-1018h4l316 383h215l-342 -414l403 -487h-229l-363 440h-4v-440h-188z" />
<glyph unicode="l" horiz-adv-x="518" d="M164 0v1536h190v-1536h-190z" />
<glyph unicode="m" horiz-adv-x="1529" d="M164 0v901h188v-88q109 109 238 109q136 0 213 -103q55 34 87 51.5t91 34.5t121 17q124 0 204 -88.5t80 -239.5v-594h-188v530q0 213 -168 213q-83 0 -162 -79q6 -30 6 -70v-594h-188v530q0 213 -168 213q-31 0 -62 -12.5t-48.5 -26t-36 -31t-19.5 -18.5v-655h-188z" />
<glyph unicode="n" horiz-adv-x="1044" d="M164 0v901h188v-88q32 32 108.5 70.5t155.5 38.5q124 0 204.5 -88.5t80.5 -239.5v-594h-190v530q0 213 -168 213q-18 0 -37 -4t-37 -11.5t-33 -15t-30.5 -18t-24 -16.5t-19.5 -14l-10 -9v-655h-188z" />
<glyph unicode="o" horiz-adv-x="1087" d="M82 451q0 207 133 339t328 132q196 0 329.5 -132t133.5 -339q0 -208 -133.5 -339.5t-329.5 -131.5q-128 0 -232.5 58t-166.5 166.5t-62 246.5zM272 451q0 -121 78.5 -207t192.5 -86t192 86t78 207q0 120 -78 205t-192 85t-192.5 -85t-78.5 -205z" />
<glyph unicode="p" d="M164 -358v1259h188v-88q46 46 114.5 77.5t147.5 31.5q134 0 236 -64t154.5 -170t52.5 -237q0 -202 -120.5 -336.5t-322.5 -134.5q-80 0 -150.5 26t-111.5 70v-359zM352 270q42 -57 105.5 -86.5t136.5 -29.5q115 0 191.5 86t76.5 211t-76.5 211t-191.5 86q-69 0 -134 -36 t-108 -98v-344z" />
<glyph unicode="q" d="M82 451q0 201 120.5 336t321.5 135q79 0 147.5 -31.5t112.5 -77.5v88h191v-1214l-191 -45v434q-40 -44 -110 -70t-150 -26q-202 0 -322 134.5t-120 336.5zM276 451q0 -125 77 -211t192 -86q71 0 134 29.5t105 86.5v344q-43 62 -106.5 98t-132.5 36q-115 0 -192 -86 t-77 -211z" />
<glyph unicode="r" horiz-adv-x="669" d="M164 0v901h188v-108q14 14 32 28.5t53.5 39t82 41t94.5 18.5v-189q-75 -3 -145 -39.5t-98 -66.5q-19 -52 -19 -113v-512h-188z" />
<glyph unicode="s" horiz-adv-x="761" d="M72 92l41 172q169 -110 249 -110q119 0 119 96q0 31 -21 54.5t-54.5 39.5t-73.5 32t-80.5 38.5t-74 52t-54.5 79t-21 113.5q0 65 25.5 117t67 83t91.5 47t103 16q29 0 59 -5.5t60 -17t47.5 -19t44.5 -21.5t29 -15l-41 -166q-107 72 -185 72q-51 0 -83.5 -25.5 t-32.5 -65.5q0 -31 21 -55.5t54.5 -42t73.5 -34.5t80.5 -40t74 -52t54.5 -76.5t21 -108.5q0 -67 -27 -120t-71 -85t-97 -48.5t-109 -16.5q-86 0 -165.5 37t-124.5 75z" />
<glyph unicode="t" horiz-adv-x="727" d="M96 737l92 174v451l191 72v-523h239l-30 -174h-209v-420q0 -119 61 -129q20 -5 42.5 -5t47.5 5q19 3 45.5 12.5t32.5 10.5v-191q-117 -40 -178 -40q-58 0 -102 19.5t-70 51t-42.5 78.5t-22 94.5t-5.5 106.5v407h-92z" />
<glyph unicode="u" horiz-adv-x="1044" d="M143 420v481h189v-428q0 -161 52.5 -235t158.5 -74q33 0 69.5 5.5t57.5 10.5l20 6v715h191v-860q-219 -61 -367 -61q-53 0 -102.5 13t-99.5 45.5t-86.5 81t-59.5 126t-23 174.5z" />
<glyph unicode="v" horiz-adv-x="929" d="M25 901h190l250 -592l250 592h188l-377 -901h-127z" />
<glyph unicode="w" horiz-adv-x="1300" d="M31 901h188l199 -541l184 541h94l187 -541l196 541h191l-340 -901h-94l-187 537l-184 -537h-94z" />
<glyph unicode="x" horiz-adv-x="894" d="M20 0l324 473l-293 428h207l188 -283l191 283h207l-295 -428l325 -473h-215l-213 311l-210 -311h-216z" />
<glyph unicode="y" horiz-adv-x="917" d="M25 901h198l240 -586l239 586h189l-512 -1259h-195l181 440z" />
<glyph unicode="z" horiz-adv-x="915" d="M92 0l445 731h-373l31 170h634l-442 -733h442l-30 -168h-707z" />
<glyph unicode="{" horiz-adv-x="782" d="M143 641v119q51 0 77 40.5t26 104.5q0 39 -10.5 162t-10.5 176q0 111 24.5 195.5t72 143t106.5 96.5t139 67l31 -189q-99 -40 -141.5 -112.5t-42.5 -200.5q20 -256 20 -338q0 -147 -47 -205q47 -58 47 -204q0 -36 -5 -120.5t-10 -151.5l-5 -66q0 -127 42.5 -201 t141.5 -113l-31 -188q-80 29 -139 67.5t-106.5 97t-72 143t-24.5 194.5q0 54 10.5 177t10.5 161q0 63 -26 104t-77 41z" />
<glyph unicode="|" horiz-adv-x="413" d="M123 -358v1822h168v-1822h-168z" />
<glyph unicode="}" horiz-adv-x="782" d="M184 -156q99 39 142 113t43 201q-21 256 -21 338q0 146 47 204q-47 58 -47 205q0 36 5 120.5t11 150.5l5 67q0 128 -43 200.5t-142 112.5l31 189q80 -29 139 -67t106.5 -96.5t72 -143t24.5 -195.5q0 -53 -10 -176t-10 -162q0 -64 25.5 -104.5t76.5 -40.5v-119 q-51 0 -76.5 -41t-25.5 -104q0 -38 10 -161t10 -177q0 -110 -24.5 -194.5t-72 -143t-106.5 -97t-139 -67.5z" />
<glyph unicode="~" horiz-adv-x="1175" d="M61 449q26 111 118 194.5t212 83.5q48 0 95.5 -18.5t85.5 -45t73 -53t71 -45t66 -18.5q66 0 106.5 41t67.5 119l158 -31q-27 -115 -117 -202t-215 -87q-59 0 -118.5 27.5t-99.5 60.5t-87.5 60.5t-85.5 27.5q-61 0 -106 -45t-68 -110z" />
<glyph unicode="&#xa1;" horiz-adv-x="548" d="M164 0h225l-20 1024h-185zM174 1167v267h205v-267h-205z" />
<glyph unicode="&#xa2;" horiz-adv-x="858" d="M82 451q0 173 96.5 299t251.5 157v353h158v-342q115 -10 213 -76l-58 -168q-87 67 -211 67q-114 0 -188 -84t-74 -206q0 -123 74 -208t188 -85q135 0 211 67l58 -168q-76 -60 -213 -75v-340h-158v350q-155 31 -251.5 158.5t-96.5 300.5z" />
<glyph unicode="&#xa3;" horiz-adv-x="1021" d="M72 461l30 147h158q-10 33 -27 76h-161l30 147h76q-17 48 -22 95q-3 38 0 75q7 81 45 148.5t94 111t123.5 67.5t136.5 24q226 0 371 -164l-95 -150q-58 61 -119 92t-155 31q-90 0 -152.5 -51.5t-62.5 -146.5q0 -57 33 -132h340l-31 -147h-254q14 -34 23 -76h262l-31 -147 h-225q-8 -121 -107 -250q56 18 113 22q42 0 65 -4q51 -6 130.5 -40.5t115.5 -34.5q102 0 195 75l10 -176q-87 -65 -180 -71q-33 -3 -76 10q-23 4 -85 24.5t-103 28.5q-89 16 -131 14q-102 -2 -263 -59l-51 178q6 5 15 13.5t33 35t43.5 53t37 63t21.5 69.5q7 17 18 49h-188z " />
<glyph unicode="&#xa4;" horiz-adv-x="935" d="M72 272l94 97q-57 85 -57 194q0 108 57 193l-94 96l106 109l96 -99q89 60 193 60q101 0 192 -58l97 97l108 -109l-96 -96q57 -85 57 -193q0 -109 -57 -194l96 -97l-108 -106l-97 96q-85 -57 -192 -57q-108 0 -193 57l-96 -96zM262 563q0 -83 61.5 -144t143.5 -61 t143.5 61t61.5 144q0 82 -61.5 143.5t-143.5 61.5t-143.5 -61.5t-61.5 -143.5z" />
<glyph unicode="&#xa5;" horiz-adv-x="1085" d="M20 1434h218l323 -617l289 617h215l-246 -512h148v-191h-238l-59 -121v-63h297v-189h-297v-358h-215v358h-297v189h297v63l-66 121h-231v191h133z" />
<glyph unicode="&#xa6;" horiz-adv-x="454" d="M143 -358v768h168v-768h-168zM143 696v768h168v-768h-168z" />
<glyph unicode="&#xa7;" horiz-adv-x="956" d="M96 635q0 158 197 310q6 5 8 7q-33 66 -45 140q-9 64 0 129q11 65 47.5 113.5t89.5 76t111.5 40.5t122.5 13l30 -164q-199 0 -225 -94q-17 -39 -6 -86q11 -50 48.5 -102t85 -95t101 -96t97.5 -104t73 -119.5t29 -142.5q0 -155 -174 -307q66 -111 66 -215 q0 -148 -97.5 -238t-234.5 -90q-37 0 -79.5 9.5t-64.5 21.5l-30 168q73 -31 174 -31q77 0 120.5 46.5t43.5 115.5q0 55 -27 105t-70 89.5t-95 79.5t-104 83t-95 90t-70 110.5t-27 136.5zM266 635q0 -46 32.5 -100t78.5 -98t92 -81.5t79 -58.5l32 -21q4 3 11.5 9t26.5 25.5 t33.5 40t26.5 50.5t12 60q0 48 -30 103t-73 99t-85.5 81.5t-72.5 57.5l-30 21q-5 -2 -14 -7t-32 -22.5t-40.5 -37.5t-32 -52.5t-14.5 -68.5z" />
<glyph unicode="&#xa8;" horiz-adv-x="757" d="M143 1044v220h156v-220h-156zM459 1044v220h155v-220h-155z" />
<glyph unicode="&#xa9;" horiz-adv-x="1761" d="M143 717q0 134 54.5 267.5t148.5 240t235 173t300 66.5q128 0 245 -43t205 -116.5t153.5 -168.5t99.5 -203t34 -216t-34 -216t-99.5 -203t-153.5 -169t-205 -117t-245 -43t-245 43t-205.5 117.5t-154 169.5t-99.5 203t-34 215zM307 717q0 -112 43.5 -219t118 -189.5 t182.5 -133t230 -50.5q161 0 294.5 86t206 221t72.5 285q0 111 -45 218.5t-120.5 190t-183 133t-224.5 50.5q-95 0 -184 -32.5t-158.5 -90t-122.5 -131.5t-81 -161.5t-28 -176.5zM524 717q0 167 108.5 282t268.5 115q129 0 227 -72l-51 -141q-73 62 -176 62 q-96 0 -157.5 -71.5t-61.5 -174.5q0 -104 61.5 -176t157.5 -72q112 0 186 61l52 -137q-39 -27 -104 -50.5t-134 -23.5q-159 0 -268 115t-109 283z" />
<glyph unicode="&#xaa;" horiz-adv-x="778" d="M96 1147q0 131 80.5 219t204.5 88q108 0 172 -76v64h117v-588h-117v53q-58 -67 -172 -67q-123 0 -204 88.5t-81 218.5zM215 1147q0 -77 50.5 -134t125.5 -57q119 0 162 82v203q-48 94 -162 94q-75 0 -125.5 -55.5t-50.5 -132.5z" />
<glyph unicode="&#xab;" horiz-adv-x="847" d="M154 440l204 359l117 -90l-153 -269l143 -270l-117 -88zM444 440l205 359l117 -90l-152 -269l142 -270l-117 -88z" />
<glyph unicode="&#xac;" horiz-adv-x="1054" d="M102 455l41 159h809v-405h-159v246h-691z" />
<glyph unicode="&#xad;" horiz-adv-x="929" d="M154 440l41 176h581l-39 -176h-583z" />
<glyph unicode="&#xae;" horiz-adv-x="1761" d="M143 717q0 134 54.5 267.5t148.5 240t235 173t300 66.5q128 0 245 -43t205 -116.5t153.5 -168.5t99.5 -203t34 -216t-34 -216t-99.5 -203t-153.5 -169t-205 -117t-245 -43t-245 43t-205.5 117.5t-154 169.5t-99.5 203t-34 215zM307 717q0 -112 43.5 -219t118 -190 t182.5 -134t230 -51q121 0 229.5 51t183 134t117.5 190t43 219q0 111 -45 219t-120.5 190.5t-183 133.5t-224.5 51q-95 0 -184 -33t-158.5 -90.5t-122.5 -132t-81 -162t-28 -176.5zM674 326v776h137q153 0 230 -69.5t77 -176.5q0 -75 -43 -131.5t-119 -81.5l213 -317h-161 l-197 297v-297h-137zM811 748q50 0 85 7.5t60 32.5t25 68q0 111 -170 111v-219z" />
<glyph unicode="&#xaf;" horiz-adv-x="757" d="M143 1034v154h471v-154h-471z" />
<glyph unicode="&#xb0;" horiz-adv-x="727" d="M86 1178q0 116 80 196t196 80q117 0 198 -80t81 -196q0 -117 -81 -197t-198 -80q-116 0 -196 80t-80 197zM209 1178q0 -66 44 -110t109 -44q66 0 110 44t44 110q0 65 -44 109t-110 44q-64 0 -108.5 -44.5t-44.5 -108.5z" />
<glyph unicode="&#xb1;" horiz-adv-x="987" d="M102 51l31 158h752l-31 -158h-752zM102 465l31 160h281v317h159v-317h312l-31 -160h-281v-199h-159v199h-312z" />
<glyph unicode="&#xb2;" horiz-adv-x="667" d="M55 635q42 51 126 153.5t126 153.5q78 100 106.5 149t28.5 101q0 50 -34 84.5t-82 34.5q-54 0 -91.5 -43t-52.5 -88l-123 75q3 8 9 21t28 45.5t49 58t73 46t99 20.5q66 0 119 -22.5t84 -59.5t47.5 -81t16.5 -91q0 -138 -150 -307q-6 -7 -46 -58.5t-46 -58.5h264l-28 -133 h-523z" />
<glyph unicode="&#xb3;" horiz-adv-x="612" d="M10 711l66 123q0 -3 26 -19t75.5 -32.5t96.5 -16.5q54 0 98 28.5t44 82.5q0 51 -37 83.5t-103 32.5q-31 0 -71 -4l20 107q65 2 113.5 30t48.5 88q0 44 -37 68.5t-74 24.5q-78 0 -159 -66l-72 109q37 38 99.5 67t131.5 29q93 0 168.5 -64.5t75.5 -162.5q0 -106 -82 -166 q8 -1 24 -12t37 -31.5t36.5 -58.5t15.5 -83q0 -113 -80.5 -179t-196.5 -66q-60 0 -118.5 18t-81.5 31t-64 39z" />
<glyph unicode="&#xb4;" horiz-adv-x="638" d="M143 1044l191 287h162l-195 -287h-158z" />
<glyph unicode="&#xb5;" horiz-adv-x="1024" d="M164 -358v1259h188v-444q0 -152 46.5 -222.5t144.5 -70.5q33 0 64.5 5.5t46.5 10.5l16 6v715h190v-860q-2 0 -29 -8t-45.5 -13t-55 -13.5t-67 -13.5t-71 -9t-78.5 -4q-91 0 -162 49v-387h-188z" />
<glyph unicode="&#xb6;" horiz-adv-x="1003" d="M55 1065q0 153 108 261t261 108h180v-1680h-180v942q-153 0 -261 108t-108 261zM727 -246v1680h178v-1680h-178z" />
<glyph unicode="&#xb7;" horiz-adv-x="688" d="M205 483v279h278v-279h-278z" />
<glyph unicode="&#xb8;" horiz-adv-x="569" d="M143 -324l39 72q12 -10 39.5 -22.5t50.5 -12.5q30 0 51 16.5t21 47.5q0 28 -18.5 43.5t-44.5 15.5q-31 0 -62.5 -7.5t-42.5 -16.5l33 184h70l-17 -92q16 4 39 4q59 0 92 -37t33 -94q0 -63 -42.5 -103.5t-111.5 -40.5q-38 0 -77.5 15.5t-51.5 27.5z" />
<glyph unicode="&#xb9;" horiz-adv-x="462" d="M61 1249v129l293 56v-799h-135v641z" />
<glyph unicode="&#xba;" horiz-adv-x="794" d="M96 1145q0 133 87 218t214 85t213 -85t86 -218q0 -134 -86 -218.5t-213 -84.5t-214 84.5t-87 218.5zM215 1145q0 -78 53 -132.5t129 -54.5t129.5 54.5t53.5 132.5t-53 132t-130 54q-76 0 -129 -54t-53 -132z" />
<glyph unicode="&#xbb;" horiz-adv-x="847" d="M82 719l117 90l204 -358l-194 -359l-117 88l141 271zM373 719l116 90l205 -358l-194 -359l-117 88l143 271z" />
<glyph unicode="&#xbc;" horiz-adv-x="1292" d="M61 1249v129l293 56v-799h-135v641zM215 -31l594 1495h174l-594 -1495h-174zM666 166l176 565l108 -78l-110 -354h170v500h131v-500h121l-25 -133h-96v-166h-131v166h-344z" />
<glyph unicode="&#xbd;" horiz-adv-x="1384" d="M61 1249v129l293 56v-799h-135v641zM215 -31l594 1495h174l-594 -1495h-174zM772 0h522l29 133h-264q6 7 46 58.5t46 58.5q149 168 149 307q0 64 -27 120t-89.5 95t-149.5 39q-53 0 -99 -19.5t-73.5 -47.5t-48 -56t-29.5 -48l-8 -19l123 -76q16 45 52.5 88t90.5 43 q48 0 82.5 -34.5t34.5 -84.5q0 -52 -28.5 -101t-106.5 -149q-42 -51 -126 -153.5t-126 -153.5z" />
<glyph unicode="&#xbe;" horiz-adv-x="1404" d="M10 711q41 -26 64 -39t81.5 -31t118.5 -18q116 0 196.5 66t80.5 179q0 45 -15.5 83t-36.5 58.5t-37 31.5t-24 12q82 60 82 166q0 98 -75.5 162.5t-168.5 64.5q-69 0 -131.5 -29t-99.5 -67l72 -109q81 66 159 66q37 0 74 -24.5t37 -68.5q0 -60 -48.5 -88t-113.5 -30 l-20 -107q40 4 71 4q66 0 103 -32.5t37 -83.5q0 -54 -44 -82.5t-98 -28.5q-47 0 -96.5 16.5t-75.5 32.5t-26 19zM338 -31l594 1495h174l-594 -1495h-174zM788 166l177 565l108 -78l-110 -354h170v500h131v-500h120l-24 -133h-96v-166h-131v166h-345z" />
<glyph unicode="&#xbf;" horiz-adv-x="675" d="M139 293q-8 63 2 141q11 60 46.5 121t70.5 102t63.5 94.5t28.5 102.5q0 51 -31 84.5t-71 48.5l102 123q87 -12 144 -81.5t57 -174.5q0 -46 -16 -91t-40 -79t-51.5 -72.5t-51.5 -73t-40 -79.5t-16 -92q0 -148 170 -172q46 -5 90 -5l-45 -182q-56 -10 -113 -4 q-113 14 -196.5 84.5t-102.5 204.5zM268 1196v266h205v-266h-205z" />
<glyph unicode="&#xc0;" horiz-adv-x="1300" d="M4 0l584 1434h123l583 -1434h-215l-164 401h-532l-164 -401h-215zM369 1843h161l191 -287h-158zM463 596h375l-189 461z" />
<glyph unicode="&#xc1;" horiz-adv-x="1300" d="M4 0l584 1434h123l583 -1434h-215l-164 401h-532l-164 -401h-215zM463 596h375l-189 461zM584 1556l190 287h162l-195 -287h-157z" />
<glyph unicode="&#xc2;" horiz-adv-x="1300" d="M4 0l584 1434h123l583 -1434h-215l-164 401h-532l-164 -401h-215zM373 1556l190 287h170l193 -287h-160l-117 173l-119 -173h-157zM463 596h375l-189 461z" />
<glyph unicode="&#xc3;" horiz-adv-x="1300" d="M4 0l584 1434h123l583 -1434h-215l-164 401h-532l-164 -401h-215zM262 1571q12 37 32.5 73t51 69t73 53t89.5 20t91 -24t82.5 -48t70.5 -24q36 0 62 28t34 64l149 -33q-15 -79 -83.5 -146t-161.5 -67q-41 0 -77.5 15t-58 33t-50.5 33t-58 15q-32 0 -58.5 -27.5 t-35.5 -66.5zM463 596h375l-189 461z" />
<glyph unicode="&#xc4;" horiz-adv-x="1300" d="M4 0l584 1434h123l583 -1434h-215l-164 401h-532l-164 -401h-215zM225 1198v236h150v-236h-150zM463 596h375l-189 461zM924 1198v236h151v-236h-151z" />
<glyph unicode="&#xc5;" horiz-adv-x="1300" d="M4 0l576 1415q-57 22 -91 72t-34 110q0 79 55.5 137t138.5 58t139 -58.5t56 -136.5q0 -60 -35 -110t-92 -72l577 -1415h-215l-164 401h-532l-164 -401h-215zM463 596h375l-189 461zM567 1597q0 -34 23.5 -57.5t58.5 -23.5q34 0 58 23.5t24 57.5q0 35 -24 59.5t-58 24.5 q-35 0 -58.5 -24.5t-23.5 -59.5z" />
<glyph unicode="&#xc6;" horiz-adv-x="1699" d="M-31 0l926 1434h696v-195h-485v-436h512v-195h-512v-413h512v-195h-723v401h-442l-244 -401h-240zM586 596h309v487z" />
<glyph unicode="&#xc7;" horiz-adv-x="1185" d="M66 717q0 117 31.5 227.5t93 204.5t146.5 164.5t198.5 110.5t242.5 40q187 0 340 -78l-59 -198q-119 72 -281 72q-142 0 -256 -77t-174.5 -200.5t-60.5 -265.5q0 -110 37 -209.5t101 -173.5t157 -118t200 -44q161 0 303 90l60 -196q-182 -97 -363 -97q-25 0 -37 2 l-12 -67q16 4 39 4q59 0 92 -37t33 -94q0 -63 -42.5 -103.5t-111.5 -40.5q-38 0 -77.5 15.5t-51.5 27.5l39 72q12 -10 39.5 -22.5t50.5 -12.5q30 0 51 16.5t21 47.5q0 28 -18.5 43.5t-44.5 15.5q-32 0 -63 -7.5t-42 -16.5l29 165q-185 24 -325 131t-212.5 266t-72.5 343z " />
<glyph unicode="&#xc8;" horiz-adv-x="976" d="M174 0v1434h696v-195h-487v-436h512v-195h-512v-413h512v-195h-721zM287 1843h162l190 -287h-158z" />
<glyph unicode="&#xc9;" horiz-adv-x="976" d="M174 0v1434h696v-195h-487v-436h512v-195h-512v-413h512v-195h-721zM369 1556l190 287h162l-195 -287h-157z" />
<glyph unicode="&#xca;" horiz-adv-x="976" d="M174 0v1434h696v-195h-487v-436h512v-195h-512v-413h512v-195h-721zM258 1556l191 287h169l193 -287h-160l-116 173l-119 -173h-158z" />
<glyph unicode="&#xcb;" horiz-adv-x="976" d="M174 0v1434h696v-195h-487v-436h512v-195h-512v-413h512v-195h-721zM299 1556v220h156v-220h-156zM614 1556v220h156v-220h-156z" />
<glyph unicode="&#xcc;" horiz-adv-x="559" d="M0 1843h162l190 -287h-157zM174 0v1434h211v-1434h-211z" />
<glyph unicode="&#xcd;" horiz-adv-x="559" d="M174 0v1434h211v-1434h-211zM205 1556l190 287h162l-195 -287h-157z" />
<glyph unicode="&#xce;" horiz-adv-x="559" d="M2 1556l191 287h169l193 -287h-160l-116 173l-119 -173h-158zM174 0v1434h211v-1434h-211z" />
<glyph unicode="&#xcf;" horiz-adv-x="559" d="M43 1556v220h156v-220h-156zM174 0v1434h211v-1434h-211zM358 1556v220h156v-220h-156z" />
<glyph unicode="&#xd0;" horiz-adv-x="1282" d="M0 725l41 176h133v533h145q156 0 282 -18.5t243.5 -67.5t196.5 -128t126 -206.5t47 -296.5q0 -171 -45.5 -298.5t-122 -206.5t-192.5 -127.5t-241.5 -66.5t-284.5 -18h-154v725h-174zM383 199q106 0 191.5 13t166.5 47.5t135.5 91.5t87.5 150t33 216q0 148 -46 252 t-132 162t-192 83t-244 25v-338h240l-39 -176h-201v-526z" />
<glyph unicode="&#xd1;" horiz-adv-x="1454" d="M174 0v1434h139l756 -994v994h211v-1434h-139l-758 991v-991h-209zM358 1571q12 37 32.5 73t51 69t73 53t89.5 20t91 -24t82.5 -48t70.5 -24q36 0 62 28t34 64l150 -33q-15 -79 -84 -146t-162 -67q-41 0 -77.5 15t-58 33t-50.5 33t-58 15q-32 0 -58.5 -27.5t-35.5 -66.5z " />
<glyph unicode="&#xd2;" horiz-adv-x="1587" d="M66 717q0 146 52.5 281.5t145.5 238.5t231 165t298 62q129 0 244 -40t202 -111t151 -165t97 -204.5t33 -226.5q0 -146 -52.5 -281.5t-145 -239t-231 -165.5t-298.5 -62q-108 0 -206.5 28.5t-177.5 79t-144 120.5t-108.5 153t-67 176.5t-23.5 190.5zM287 717 q0 -142 65 -267t182.5 -201.5t258.5 -76.5q142 0 260 77t182.5 201.5t64.5 266.5q0 105 -38.5 204t-104.5 174t-161.5 120t-202.5 45q-141 0 -258.5 -76.5t-182.5 -201t-65 -265.5zM512 1843h162l190 -287h-157z" />
<glyph unicode="&#xd3;" horiz-adv-x="1587" d="M66 717q0 146 52.5 281.5t145.5 238.5t231 165t298 62q129 0 244 -40t202 -111t151 -165t97 -204.5t33 -226.5q0 -146 -52.5 -281.5t-145 -239t-231 -165.5t-298.5 -62q-108 0 -206.5 28.5t-177.5 79t-144 120.5t-108.5 153t-67 176.5t-23.5 190.5zM287 717 q0 -142 65 -267t182.5 -201.5t258.5 -76.5q142 0 260 77t182.5 201.5t64.5 266.5q0 105 -38.5 204t-104.5 174t-161.5 120t-202.5 45q-141 0 -258.5 -76.5t-182.5 -201t-65 -265.5zM717 1556l190 287h162l-195 -287h-157z" />
<glyph unicode="&#xd4;" horiz-adv-x="1587" d="M66 717q0 146 52.5 281.5t145.5 238.5t231 165t298 62q129 0 244 -40t202 -111t151 -165t97 -204.5t33 -226.5q0 -146 -52.5 -281.5t-145 -239t-231 -165.5t-298.5 -62q-108 0 -206.5 28.5t-177.5 79t-144 120.5t-108.5 153t-67 176.5t-23.5 190.5zM287 717 q0 -142 65 -267t182.5 -201.5t258.5 -76.5q142 0 260 77t182.5 201.5t64.5 266.5q0 105 -38.5 204t-104.5 174t-161.5 120t-202.5 45q-141 0 -258.5 -76.5t-182.5 -201t-65 -265.5zM516 1556l191 287h170l192 -287h-160l-116 173l-119 -173h-158z" />
<glyph unicode="&#xd5;" horiz-adv-x="1587" d="M66 717q0 146 52.5 281.5t145.5 238.5t231 165t298 62q129 0 244 -40t202 -111t151 -165t97 -204.5t33 -226.5q0 -146 -52.5 -281.5t-145 -239t-231 -165.5t-298.5 -62q-108 0 -206.5 28.5t-177.5 79t-144 120.5t-108.5 153t-67 176.5t-23.5 190.5zM287 717 q0 -142 65 -267t182.5 -201.5t258.5 -76.5q142 0 260 77t182.5 201.5t64.5 266.5q0 105 -38.5 204t-104.5 174t-161.5 120t-202.5 45q-141 0 -258.5 -76.5t-182.5 -201t-65 -265.5zM406 1571q12 37 32.5 73t50.5 69t72.5 53t89.5 20t91 -24t82.5 -48t70.5 -24q36 0 62 28 t34 64l150 -33q-15 -79 -84 -146t-162 -67q-41 0 -77.5 15t-58 33t-50.5 33t-58 15q-32 0 -58.5 -27.5t-35.5 -66.5z" />
<glyph unicode="&#xd6;" horiz-adv-x="1587" d="M14 1202v232h150v-232h-150zM66 717q0 146 52.5 281.5t145.5 238.5t231 165t298 62q129 0 244 -40t202 -111t151 -165t97 -204.5t33 -226.5q0 -146 -52.5 -281.5t-145 -239t-231 -165.5t-298.5 -62q-108 0 -206.5 28.5t-177.5 79t-144 120.5t-108.5 153t-67 176.5 t-23.5 190.5zM287 717q0 -142 65 -267t182.5 -201.5t258.5 -76.5q142 0 260 77t182.5 201.5t64.5 266.5q0 105 -38.5 204t-104.5 174t-161.5 120t-202.5 45q-141 0 -258.5 -76.5t-182.5 -201t-65 -265.5zM1423 1202v232h148v-232h-148z" />
<glyph unicode="&#xd7;" horiz-adv-x="980" d="M119 297l260 258l-260 260l112 113l258 -260l261 260l112 -113l-260 -260l260 -258l-112 -113l-261 258l-258 -258z" />
<glyph unicode="&#xd8;" horiz-adv-x="1587" d="M66 717q0 146 52.5 281.5t145.5 238.5t231 165t298 62q108 0 206 -28l54 110l190 -90l-51 -110q153 -102 240.5 -270.5t87.5 -358.5q0 -146 -52.5 -281.5t-145 -239t-231 -165.5t-298.5 -62q-120 0 -230 35l-53 -117l-191 90l56 121q-145 102 -227 267.5t-82 351.5z M287 717q0 -122 48 -233t134 -187l442 948q-73 15 -118 15q-141 0 -258.5 -76.5t-182.5 -201t-65 -265.5zM651 193q67 -21 142 -21q142 0 260 77t182.5 201.5t64.5 266.5q0 125 -53.5 240t-146.5 192z" />
<glyph unicode="&#xd9;" horiz-adv-x="1341" d="M158 547v96v791h211v-856q0 -113 23.5 -195.5t66 -129t95 -68t116.5 -21.5t117 21.5t95.5 68t66.5 129t24 195.5v856h209v-887q0 -118 -28 -214.5t-75.5 -163t-113 -112.5t-140 -67t-155.5 -21t-155.5 21t-140 67t-113 112.5t-75.5 163t-28 214.5zM492 1843h161l191 -287 h-158z" />
<glyph unicode="&#xda;" horiz-adv-x="1341" d="M158 547v96v791h211v-856q0 -113 23.5 -195.5t66 -129t95 -68t116.5 -21.5t117 21.5t95.5 68t66.5 129t24 195.5v856h209v-887q0 -118 -28 -214.5t-75.5 -163t-113 -112.5t-140 -67t-155.5 -21t-155.5 21t-140 67t-113 112.5t-75.5 163t-28 214.5zM492 1556l190 287h162 l-195 -287h-157z" />
<glyph unicode="&#xdb;" horiz-adv-x="1341" d="M158 547v96v791h211v-856q0 -113 23.5 -195.5t66 -129t95 -68t116.5 -21.5t117 21.5t95.5 68t66.5 129t24 195.5v856h209v-887q0 -118 -28 -214.5t-75.5 -163t-113 -112.5t-140 -67t-155.5 -21t-155.5 21t-140 67t-113 112.5t-75.5 163t-28 214.5zM393 1556l191 287h170 l192 -287h-160l-116 173l-119 -173h-158z" />
<glyph unicode="&#xdc;" horiz-adv-x="1341" d="M178 547v96v791h211v-856q0 -113 23.5 -195.5t66 -129t95 -68t116.5 -21.5t117 21.5t95.5 68t66.5 129t24 195.5v856h209v-887q0 -118 -28 -214.5t-75.5 -163t-113 -112.5t-140 -67t-155.5 -21t-155.5 21t-140 67t-113 112.5t-75.5 163t-28 214.5zM539 1137v297h123v-297 h-123zM721 1137v297h123v-297h-123z" />
<glyph unicode="&#xdd;" horiz-adv-x="1075" d="M20 1434h218l299 -607l303 607h215l-410 -813v-621h-215v621zM451 1556l190 287h162l-195 -287h-157z" />
<glyph unicode="&#xde;" horiz-adv-x="1024" d="M174 0v1434h188v-349h236q162 0 268.5 -106t106.5 -262t-106.5 -262.5t-268.5 -106.5h-236v-348h-188zM362 526h236q79 0 131.5 57.5t52.5 133.5q0 75 -52.5 131.5t-131.5 56.5h-236v-379z" />
<glyph unicode="&#xdf;" horiz-adv-x="1191" d="M106 727l93 174v72q0 223 111.5 354t303.5 131q103 0 183.5 -33t127 -88t70 -120.5t23.5 -137.5q0 -105 -42.5 -180t-111.5 -111q36 -8 75.5 -33.5t79 -68t65.5 -111.5t26 -151q0 -90 -28 -169.5t-80.5 -141t-135.5 -97.5t-186 -36q-48 0 -98.5 11t-69.5 23v195 q79 -41 168 -41q105 0 173.5 76.5t68.5 179.5q0 66 -28 121t-73 89t-97.5 52.5t-105.5 18.5v155q71 0 131 50.5t70 121.5q10 85 -20 137q-16 46 -63 73.5t-122 27.5q-101 0 -163 -76t-62 -242v-952h-190v727h-93z" />
<glyph unicode="&#xe0;" d="M82 451q0 201 120.5 336t321.5 135q70 0 141 -30.5t119 -78.5v88h191v-901h-191v76q-40 -45 -108 -70.5t-152 -25.5q-202 0 -322 134.5t-120 336.5zM266 1331h162l190 -287h-157zM276 451q0 -125 77 -211t192 -86q71 0 134 29.5t105 86.5v344q-43 62 -106.5 98t-132.5 36 q-115 0 -192 -86t-77 -211z" />
<glyph unicode="&#xe1;" d="M82 451q0 201 120.5 336t321.5 135q70 0 141 -30.5t119 -78.5v88h191v-901h-191v76q-40 -45 -108 -70.5t-152 -25.5q-202 0 -322 134.5t-120 336.5zM276 451q0 -125 77 -211t192 -86q71 0 134 29.5t105 86.5v344q-43 62 -106.5 98t-132.5 36q-115 0 -192 -86t-77 -211z M410 1044l190 287h162l-195 -287h-157z" />
<glyph unicode="&#xe2;" d="M82 451q0 201 120.5 336t321.5 135q70 0 141 -30.5t119 -78.5v88h191v-901h-191v76q-40 -45 -108 -70.5t-152 -25.5q-202 0 -322 134.5t-120 336.5zM256 1044l190 287h170l193 -287h-160l-117 173l-118 -173h-158zM276 451q0 -125 77 -211t192 -86q71 0 134 29.5 t105 86.5v344q-43 62 -106.5 98t-132.5 36q-115 0 -192 -86t-77 -211z" />
<glyph unicode="&#xe3;" d="M82 451q0 201 120.5 336t321.5 135q70 0 141 -30.5t119 -78.5v88h191v-901h-191v76q-40 -45 -108 -70.5t-152 -25.5q-202 0 -322 134.5t-120 336.5zM164 1069q12 37 32.5 73t51 69t73 53t89.5 20q37 0 73.5 -15t60 -33t53.5 -33t56 -15q36 0 62.5 28t34.5 64l149 -33 q-15 -79 -84 -146t-162 -67q-41 0 -77 15t-57.5 33t-50.5 33t-58 15q-32 0 -59 -27.5t-36 -66.5zM276 451q0 -125 77 -211t192 -86q71 0 134 29.5t105 86.5v344q-43 62 -106.5 98t-132.5 36q-115 0 -192 -86t-77 -211z" />
<glyph unicode="&#xe4;" d="M82 451q0 201 120.5 336t321.5 135q70 0 141 -30.5t119 -78.5v88h191v-901h-191v76q-40 -45 -108 -70.5t-152 -25.5q-202 0 -322 134.5t-120 336.5zM276 451q0 -125 77 -211t192 -86q71 0 134 29.5t105 86.5v344q-43 62 -106.5 98t-132.5 36q-115 0 -192 -86t-77 -211z M297 1044v220h156v-220h-156zM612 1044v220h156v-220h-156z" />
<glyph unicode="&#xe5;" d="M82 451q0 201 120.5 336t321.5 135q70 0 141 -30.5t119 -78.5v88h191v-901h-191v76q-40 -45 -108 -70.5t-152 -25.5q-202 0 -322 134.5t-120 336.5zM276 451q0 -125 77 -211t192 -86q71 0 134 29.5t105 86.5v344q-43 62 -106.5 98t-132.5 36q-115 0 -192 -86t-77 -211z M328 1192q0 78 55.5 136t138.5 58t139 -58t56 -136t-56 -136.5t-139 -58.5t-138.5 58t-55.5 137zM440 1192q0 -34 23.5 -58t58.5 -24q34 0 58 24t24 58q0 35 -24 59.5t-58 24.5q-35 0 -58.5 -24.5t-23.5 -59.5z" />
<glyph unicode="&#xe6;" horiz-adv-x="1759" d="M82 451q0 201 120.5 336t321.5 135q78 0 146.5 -29.5t113.5 -79.5v88h160v-102q123 123 303 123q194 0 305 -117t123 -316q2 -33 2 -100h-692q5 -42 23 -82t49.5 -75t83.5 -56.5t116 -21.5q105 0 189.5 33.5t118.5 62.5l71 -146q-14 -13 -41.5 -30t-76 -40t-121 -38.5 t-150.5 -15.5q-180 0 -303 120v-100h-160v76q-40 -45 -108 -70.5t-152 -25.5q-202 0 -322 134.5t-120 336.5zM276 451q0 -125 77 -211t192 -86q71 0 134 29.5t105 86.5v344q-43 62 -106.5 98t-132.5 36q-115 0 -192 -86t-77 -211zM981 522h504q0 95 -64 165.5t-188 70.5 q-62 0 -112 -23t-79.5 -59t-45 -76t-15.5 -78z" />
<glyph unicode="&#xe7;" horiz-adv-x="878" d="M86 451q0 202 129.5 336.5t321.5 134.5q151 0 274 -84l-63 -179q-47 42 -94.5 62t-116.5 20q-114 0 -187.5 -84t-73.5 -206q0 -123 73.5 -208t187.5 -85q117 0 221 82l63 -179q-42 -32 -119.5 -56.5t-164.5 -24.5q-25 0 -37 2l-13 -78q16 4 39 4q59 0 92 -37t33 -94 q0 -63 -42 -103.5t-111 -40.5q-38 0 -77.5 15.5t-51.5 27.5l39 72q12 -10 39.5 -22.5t50.5 -12.5q30 0 50.5 16.5t20.5 47.5q0 28 -18.5 43.5t-44.5 15.5q-32 0 -63 -7.5t-42 -16.5l31 180q-154 34 -250 160t-96 299z" />
<glyph unicode="&#xe8;" horiz-adv-x="1054" d="M82 451q0 97 29.5 181.5t85.5 149.5t145 102.5t201 37.5q188 0 298.5 -112.5t125.5 -301.5q6 -55 6 -119h-692q12 -93 80.5 -164t191.5 -71q104 0 189.5 34t117.5 64l72 -148q-16 -14 -42.5 -30t-75.5 -39.5t-121 -39t-150 -15.5q-209 0 -335 129t-126 342zM266 1331h162 l190 -287h-157zM276 522h502q0 93 -66.5 164.5t-185.5 71.5q-77 0 -136.5 -40t-86.5 -92.5t-27 -103.5z" />
<glyph unicode="&#xe9;" horiz-adv-x="1054" d="M82 451q0 97 29.5 181.5t85.5 149.5t145 102.5t201 37.5q188 0 298.5 -112.5t125.5 -301.5q6 -55 6 -119h-692q12 -93 80.5 -164t191.5 -71q104 0 189.5 34t117.5 64l72 -148q-16 -14 -42.5 -30t-75.5 -39.5t-121 -39t-150 -15.5q-209 0 -335 129t-126 342zM276 522h502 q0 93 -66.5 164.5t-185.5 71.5q-77 0 -136.5 -40t-86.5 -92.5t-27 -103.5zM451 1044l190 287h162l-195 -287h-157z" />
<glyph unicode="&#xea;" horiz-adv-x="1054" d="M82 451q0 97 29.5 181.5t85.5 149.5t145 102.5t201 37.5q188 0 298.5 -112.5t125.5 -301.5q6 -55 6 -119h-692q12 -93 80.5 -164t191.5 -71q104 0 189.5 34t117.5 64l72 -148q-16 -14 -42.5 -30t-75.5 -39.5t-121 -39t-150 -15.5q-209 0 -335 129t-126 342zM256 1044 l190 287h170l193 -287h-160l-117 173l-118 -173h-158zM276 522h502q0 93 -66.5 164.5t-185.5 71.5q-77 0 -136.5 -40t-86.5 -92.5t-27 -103.5z" />
<glyph unicode="&#xeb;" horiz-adv-x="1054" d="M82 451q0 97 29.5 181.5t85.5 149.5t145 102.5t201 37.5q188 0 298.5 -112.5t125.5 -301.5q6 -55 6 -119h-692q12 -93 80.5 -164t191.5 -71q104 0 189.5 34t117.5 64l72 -148q-16 -14 -42.5 -30t-75.5 -39.5t-121 -39t-150 -15.5q-209 0 -335 129t-126 342zM276 522h502 q0 93 -66.5 164.5t-185.5 71.5q-77 0 -136.5 -40t-86.5 -92.5t-27 -103.5zM307 1044v220h156v-220h-156zM623 1044v220h155v-220h-155z" />
<glyph unicode="&#xec;" horiz-adv-x="436" d="M-61 1331h161l191 -287h-158zM123 0v901h190v-901h-190z" />
<glyph unicode="&#xed;" horiz-adv-x="436" d="M123 0v901h190v-901h-190zM143 1044l191 287h162l-195 -287h-158z" />
<glyph unicode="&#xee;" horiz-adv-x="436" d="M-59 1044l190 287h170l193 -287h-160l-117 173l-119 -173h-157zM123 0v901h190v-901h-190z" />
<glyph unicode="&#xef;" horiz-adv-x="436" d="M-20 1044v220h155v-220h-155zM123 0v901h190v-901h-190zM295 1044v220h156v-220h-156z" />
<glyph unicode="&#xf0;" horiz-adv-x="1054" d="M86 438q0 188 113.5 312t306.5 124q63 0 112.5 -18.5t77.5 -42.5l-133 234l-170 -84v122l117 60l-111 196h195q31 -52 70 -124l155 77v-127l-100 -51q135 -244 168 -315l24 -60q56 -145 56 -297q0 -190 -127 -322t-312 -132q-122 0 -224 61t-160 163.5t-58 223.5z M276 438q0 -109 71.5 -183.5t178.5 -74.5q108 0 180 74.5t72 183.5q0 118 -71.5 187t-180.5 69q-107 0 -178.5 -74t-71.5 -182z" />
<glyph unicode="&#xf1;" horiz-adv-x="1044" d="M143 1069q12 37 32.5 73t51 69t73 53t89.5 20t91 -24t82.5 -48t70.5 -24q36 0 62 28t34 64l150 -33q-15 -79 -84 -146t-162 -67q-41 0 -77.5 15t-58 33t-50.5 33t-58 15q-32 0 -58.5 -27.5t-35.5 -66.5zM164 0v901h188v-88q32 32 108.5 70.5t155.5 38.5 q124 0 204.5 -88.5t80.5 -239.5v-594h-190v530q0 213 -168 213q-18 0 -37 -4t-37 -11.5t-33 -15t-30.5 -18t-24 -16.5t-19.5 -14l-10 -9v-655h-188z" />
<glyph unicode="&#xf2;" horiz-adv-x="1087" d="M82 451q0 207 133 339t328 132q196 0 329.5 -132t133.5 -339q0 -208 -133.5 -339.5t-329.5 -131.5q-128 0 -232.5 58t-166.5 166.5t-62 246.5zM246 1331h162l190 -287h-158zM272 451q0 -121 78.5 -207t192.5 -86t192 86t78 207q0 120 -78 205t-192 85t-192.5 -85 t-78.5 -205z" />
<glyph unicode="&#xf3;" horiz-adv-x="1087" d="M82 451q0 207 133 339t328 132q196 0 329.5 -132t133.5 -339q0 -208 -133.5 -339.5t-329.5 -131.5q-128 0 -232.5 58t-166.5 166.5t-62 246.5zM272 451q0 -121 78.5 -207t192.5 -86t192 86t78 207q0 120 -78 205t-192 85t-192.5 -85t-78.5 -205zM451 1044l190 287h162 l-195 -287h-157z" />
<glyph unicode="&#xf4;" horiz-adv-x="1087" d="M82 451q0 207 133 339t328 132q196 0 329.5 -132t133.5 -339q0 -208 -133.5 -339.5t-329.5 -131.5q-128 0 -232.5 58t-166.5 166.5t-62 246.5zM266 1044l191 287h170l192 -287h-160l-116 173l-119 -173h-158zM272 451q0 -121 78.5 -207t192.5 -86t192 86t78 207 q0 120 -78 205t-192 85t-192.5 -85t-78.5 -205z" />
<glyph unicode="&#xf5;" horiz-adv-x="1087" d="M82 451q0 207 133 339t328 132q196 0 329.5 -132t133.5 -339q0 -208 -133.5 -339.5t-329.5 -131.5q-128 0 -232.5 58t-166.5 166.5t-62 246.5zM164 1069q12 37 32.5 73t51 69t73 53t89.5 20q37 0 73.5 -15t60 -33t53.5 -33t56 -15q36 0 62.5 28t34.5 64l149 -33 q-15 -79 -84 -146t-162 -67q-41 0 -77 15t-57.5 33t-50.5 33t-58 15q-32 0 -59 -27.5t-36 -66.5zM272 451q0 -121 78.5 -207t192.5 -86t192 86t78 207q0 120 -78 205t-192 85t-192.5 -85t-78.5 -205z" />
<glyph unicode="&#xf6;" horiz-adv-x="1087" d="M82 451q0 207 133 339t328 132q196 0 329.5 -132t133.5 -339q0 -208 -133.5 -339.5t-329.5 -131.5q-128 0 -232.5 58t-166.5 166.5t-62 246.5zM272 451q0 -121 78.5 -207t192.5 -86t192 86t78 207q0 120 -78 205t-192 85t-192.5 -85t-78.5 -205zM307 1044v220h156v-220 h-156zM623 1044v220h155v-220h-155z" />
<glyph unicode="&#xf7;" horiz-adv-x="987" d="M102 420l31 158h752l-31 -158h-752zM401 96v236h181v-236h-181zM401 666v235h181v-235h-181z" />
<glyph unicode="&#xf8;" horiz-adv-x="1087" d="M82 451q0 207 133 339t328 132q50 0 110 -13l49 105l175 -80l-50 -107q84 -63 131.5 -160t47.5 -216q0 -208 -133.5 -339.5t-329.5 -131.5q-55 0 -107 12l-47 -105l-174 80l47 103q-85 63 -132.5 161t-47.5 220zM272 451q0 -120 74 -203l227 491q-5 0 -15 1t-15 1 q-114 0 -192.5 -85t-78.5 -205zM516 158h27q114 0 192 86t78 207q0 111 -70 194z" />
<glyph unicode="&#xf9;" horiz-adv-x="1044" d="M143 420v481h189v-428q0 -161 52.5 -235t158.5 -74q33 0 69.5 5.5t57.5 10.5l20 6v715h191v-860q-219 -61 -367 -61q-53 0 -102.5 13t-99.5 45.5t-86.5 81t-59.5 126t-23 174.5zM236 1331h161l191 -287h-158z" />
<glyph unicode="&#xfa;" horiz-adv-x="1044" d="M143 420v481h189v-428q0 -161 52.5 -235t158.5 -74q33 0 69.5 5.5t57.5 10.5l20 6v715h191v-860q-219 -61 -367 -61q-53 0 -102.5 13t-99.5 45.5t-86.5 81t-59.5 126t-23 174.5zM430 1044l191 287h161l-194 -287h-158z" />
<glyph unicode="&#xfb;" horiz-adv-x="1044" d="M143 420v481h189v-428q0 -161 52.5 -235t158.5 -74q33 0 69.5 5.5t57.5 10.5l20 6v715h191v-860q-219 -61 -367 -61q-53 0 -102.5 13t-99.5 45.5t-86.5 81t-59.5 126t-23 174.5zM233 1044l191 287h170l192 -287h-159l-117 173l-119 -173h-158z" />
<glyph unicode="&#xfc;" horiz-adv-x="1044" d="M143 420v481h189v-428q0 -161 52.5 -235t158.5 -74q33 0 69.5 5.5t57.5 10.5l20 6v715h191v-860q-219 -61 -367 -61q-53 0 -102.5 13t-99.5 45.5t-86.5 81t-59.5 126t-23 174.5zM276 1044v220h156v-220h-156zM592 1044v220h156v-220h-156z" />
<glyph unicode="&#xfd;" horiz-adv-x="917" d="M25 901h198l240 -586l239 586h189l-512 -1259h-195l181 440zM379 1044l190 287h162l-194 -287h-158z" />
<glyph unicode="&#xfe;" horiz-adv-x="1110" d="M164 -358v1806h188v-608q40 37 106 59.5t130 22.5q201 0 320.5 -135t119.5 -336q0 -132 -51.5 -238t-153 -169.5t-235.5 -63.5q-63 0 -130.5 23t-105.5 58v-419h-188zM352 264q36 -53 93.5 -81.5t121.5 -28.5q114 0 193.5 88t79.5 209q0 120 -79.5 208.5t-193.5 88.5 q-64 0 -121.5 -30t-93.5 -83v-371z" />
<glyph unicode="&#xff;" horiz-adv-x="917" d="M25 901h198l240 -586l239 586h189l-512 -1259h-195l181 440zM227 1044v220h156v-220h-156zM543 1044v220h155v-220h-155z" />
<glyph unicode="&#x152;" horiz-adv-x="2103" d="M66 717q0 146 52.5 281.5t145.5 238.5t231 165t298 62q300 0 507 -207v177h697v-195h-488v-395q4 -28 4 -41h508v-195h-510q0 -3 -1 -9t-1 -9v-395h512v-195h-721v174q-208 -205 -507 -205q-108 0 -206.5 28.5t-177.5 79t-144 120.5t-108.5 153t-67 176.5t-23.5 190.5z M287 717q0 -142 65 -267t182.5 -201.5t258.5 -76.5q142 0 260 77t182.5 201.5t64.5 266.5v20q-5 137 -71 256.5t-182 193t-254 73.5q-141 0 -258.5 -76.5t-182.5 -201t-65 -265.5z" />
<glyph unicode="&#x153;" horiz-adv-x="1785" d="M82 451q0 207 133 339t328 132q112 0 206.5 -49.5t155.5 -135.5q59 87 153 136t216 49q109 0 192 -39t134.5 -111t77.5 -168t26 -215h-690q5 -42 22.5 -81.5t49 -75t83 -57t115.5 -21.5q105 0 188.5 33.5t118.5 62.5l72 -146q-14 -13 -41.5 -30t-76 -40t-121 -38.5 t-150.5 -15.5q-114 0 -208.5 50.5t-154.5 137.5q-60 -88 -156.5 -138t-211.5 -50q-128 0 -232.5 58t-166.5 166.5t-62 246.5zM270 451q0 -121 79 -207t194 -86q114 0 192 86t78 207q0 120 -78 205t-192 85q-115 0 -194 -85.5t-79 -204.5zM1008 522h499q0 44 -14 84.5 t-42.5 75.5t-77.5 55.5t-113 20.5q-62 0 -112 -23t-79.5 -59t-45 -76t-15.5 -78z" />
<glyph unicode="&#x178;" horiz-adv-x="1075" d="M20 1434h218l299 -607l303 607h215l-410 -813v-621h-215v621zM303 1556v220h156v-220h-156zM618 1556v220h156v-220h-156z" />
<glyph unicode="&#x2c6;" horiz-adv-x="839" d="M143 1044l191 287h170l192 -287h-159l-117 173l-119 -173h-158z" />
<glyph unicode="&#x2dc;" horiz-adv-x="1021" d="M143 1069q12 37 32.5 73t51 69t73 53t89.5 20t91 -24t82.5 -48t70.5 -24q36 0 62 28t34 64l150 -33q-15 -79 -84 -146t-162 -67q-41 0 -77.5 15t-58 33t-50.5 33t-58 15q-32 0 -58.5 -27.5t-35.5 -66.5z" />
<glyph unicode="&#x2000;" horiz-adv-x="921" />
<glyph unicode="&#x2001;" horiz-adv-x="1843" />
<glyph unicode="&#x2002;" horiz-adv-x="921" />
<glyph unicode="&#x2003;" horiz-adv-x="1843" />
<glyph unicode="&#x2004;" horiz-adv-x="614" />
<glyph unicode="&#x2005;" horiz-adv-x="460" />
<glyph unicode="&#x2006;" horiz-adv-x="307" />
<glyph unicode="&#x2007;" horiz-adv-x="307" />
<glyph unicode="&#x2008;" horiz-adv-x="230" />
<glyph unicode="&#x2009;" horiz-adv-x="368" />
<glyph unicode="&#x200a;" horiz-adv-x="102" />
<glyph unicode="&#x2010;" horiz-adv-x="929" d="M154 440l41 176h581l-39 -176h-583z" />
<glyph unicode="&#x2011;" horiz-adv-x="929" d="M154 440l41 176h581l-39 -176h-583z" />
<glyph unicode="&#x2012;" horiz-adv-x="929" d="M154 440l41 176h581l-39 -176h-583z" />
<glyph unicode="&#x2013;" horiz-adv-x="829" d="M35 440l41 174h717l-41 -174h-717z" />
<glyph unicode="&#x2014;" horiz-adv-x="1546" d="M35 440l41 174h1433l-41 -174h-1433z" />
<glyph unicode="&#x2018;" horiz-adv-x="475" d="M113 1106q0 52 13.5 104.5t33 91t39.5 69.5t33 47l14 16l106 -58q-40 -67 -58 -117.5t-18 -121.5q0 -100 72 -236l-153 -61q-9 16 -22.5 43t-36.5 97.5t-23 125.5z" />
<glyph unicode="&#x2019;" horiz-adv-x="475" d="M123 895q40 66 58 118.5t18 123.5q0 99 -72 235l154 62q9 -16 22.5 -43.5t36 -98t22.5 -125.5q0 -52 -13.5 -104.5t-33 -90.5t-39.5 -69t-34 -47l-13 -16z" />
<glyph unicode="&#x201a;" horiz-adv-x="475" d="M123 -219q40 67 58 117.5t18 121.5q0 100 -72 236l154 61q9 -16 22.5 -43t36 -97.5t22.5 -125.5q0 -52 -13.5 -104.5t-33 -90.5t-39.5 -69t-34 -47l-13 -16z" />
<glyph unicode="&#x201c;" horiz-adv-x="765" d="M113 1106q0 52 13.5 104.5t33 91t39.5 69.5t33 47l14 16l106 -58q-40 -67 -58 -117.5t-18 -121.5q0 -100 72 -236l-153 -61q-9 16 -22.5 43t-36.5 97.5t-23 125.5zM403 1106q0 52 14 104.5t33.5 91t39 69.5t33.5 47l14 16l106 -58q-40 -67 -58 -117.5t-18 -121.5 q0 -100 72 -236l-154 -61q-9 16 -22.5 43t-36.5 97.5t-23 125.5z" />
<glyph unicode="&#x201d;" horiz-adv-x="765" d="M123 895q40 66 58 118.5t18 123.5q0 99 -72 235l154 62q9 -16 22.5 -43.5t36 -98t22.5 -125.5q0 -52 -13.5 -104.5t-33 -90.5t-39.5 -69t-34 -47l-13 -16zM414 895q39 65 57 118t18 124q0 101 -71 235l153 62q9 -16 22.5 -43.5t36.5 -98t23 -125.5q0 -82 -33.5 -163.5 t-66.5 -122.5l-33 -41z" />
<glyph unicode="&#x201e;" horiz-adv-x="765" d="M123 -221q40 66 58 118t18 123q0 100 -72 236l154 61q9 -16 22.5 -43t36 -97.5t22.5 -125.5q0 -52 -13.5 -104.5t-33 -90.5t-39.5 -69t-34 -47l-13 -16zM414 -221q39 65 57 117.5t18 123.5q0 102 -71 236l153 61q9 -16 22.5 -43t36.5 -97.5t23 -125.5q0 -82 -33.5 -163.5 t-66.5 -122.5l-33 -41z" />
<glyph unicode="&#x2022;" horiz-adv-x="739" d="M164 250v409h411v-409h-411z" />
<glyph unicode="&#x2026;" horiz-adv-x="1402" d="M225 0v266h205v-266h-205zM604 0v266h205v-266h-205zM1004 0v266h204v-266h-204z" />
<glyph unicode="&#x202f;" horiz-adv-x="368" />
<glyph unicode="&#x2039;" horiz-adv-x="557" d="M154 451l204 358l117 -90l-153 -268l143 -271l-117 -88z" />
<glyph unicode="&#x203a;" horiz-adv-x="557" d="M82 719l117 90l204 -358l-194 -359l-117 88l141 271z" />
<glyph unicode="&#x205f;" horiz-adv-x="460" />
<glyph unicode="&#x20ac;" horiz-adv-x="1185" d="M0 489l41 150h74q-2 20 -2 61q0 38 2 56h-115l41 149h98q61 228 243.5 370t446.5 142q185 0 340 -76l-51 -208q-116 90 -289 90q-159 0 -282.5 -88t-177.5 -230h460l-41 -149h-458q-2 -18 -2 -56q0 -41 2 -61h428l-41 -150h-344q54 -141 176.5 -231t279.5 -90 q174 0 289 92l51 -209q-153 -78 -340 -78q-261 0 -443 144.5t-245 371.5h-141z" />
<glyph unicode="&#x2122;" horiz-adv-x="1605" d="M143 1305v129h414v-129h-137v-670h-139v670h-138zM686 635v799h82l305 -451l307 451h82v-799h-139v481l-250 -362l-248 356v-475h-139z" />
</font>
</defs>
</svg>
