<?xml version="1.0" encoding="utf-8"?>
<!-- Generator: Adobe Illustrator 17.0.0, SVG Export Plug-In . SVG Version: 6.00 Build 0)  -->
<!DOCTYPE svg PUBLIC "-//W3C//DTD SVG 1.0//EN" "http://www.w3.org/TR/2001/REC-SVG-20010904/DTD/svg10.dtd">
<svg version="1.0" id="Layer_1" xmlns="http://www.w3.org/2000/svg" xmlns:xlink="http://www.w3.org/1999/xlink" x="0px" y="0px"
	 width="800px" height="438px" viewBox="0 0 800 438" enable-background="new 0 0 800 438" xml:space="preserve">
<g>
	<g>
		<path fill="#FFFFFF" d="M203.338,24.502l-31.109,176.842h45.122l-4.204,23.542h-45.122l-9.528,55.211
			c-2.058,10.65-5.842,20.691-11.351,30.128c-5.513,9.433-12.659,17.888-21.439,25.363c-8.968,7.47-18.497,13.172-28.586,17.095
			c-10.09,3.924-20.459,5.886-31.109,5.886s-20.415-1.962-29.287-5.886c-8.876-3.923-16.303-9.625-22.28-17.095
			c-6.166-7.475-10.37-15.931-12.612-25.363c-2.242-9.437-2.426-19.478-0.561-30.128c1.866-10.65,5.557-20.739,11.071-30.268
			c5.509-9.528,12.751-18.029,21.72-25.503c8.78-7.471,18.261-13.173,28.446-17.096c10.181-3.923,20.599-5.886,31.248-5.886h54.931
			l31.109-176.842H140c-7.474,0-14.761,1.401-21.86,4.204c-7.103,2.803-13.733,6.822-19.899,12.051
			c-5.981,5.233-10.93,11.167-14.854,17.796c-3.923,6.634-6.542,13.689-7.847,21.16c-1.497,7.287-1.449,14.25,0.14,20.879
			c1.585,6.634,4.528,12.568,8.829,17.797l-19.338,16.815c-6.166-7.471-10.466-15.927-12.891-25.363
			c-2.43-9.433-2.619-19.478-0.561-30.128c1.866-10.65,5.605-20.739,11.21-30.268c5.605-9.528,12.892-18.029,21.86-25.503
			c8.78-7.471,18.217-13.173,28.306-17.096c10.089-3.923,20.459-5.886,31.108-5.886H303.39l-4.204,23.542H203.338z M144.484,224.886
			H89.554c-7.474,0-14.761,1.401-21.86,4.204c-7.103,2.803-13.733,6.822-19.899,12.051c-5.981,5.233-10.978,11.167-14.994,17.796
			c-4.02,6.634-6.682,13.689-7.987,21.16c-1.498,7.287-1.401,14.245,0.28,20.879c1.682,6.63,4.668,12.655,8.969,18.076
			c8.968,10.65,21.019,15.975,36.153,15.975c7.287,0,14.525-1.358,21.72-4.064c7.19-2.71,13.776-6.682,19.758-11.911
			c6.35-5.421,11.442-11.446,15.274-18.076c3.828-6.634,6.49-13.592,7.988-20.879L144.484,224.886z"/>
		<path fill="#FFFFFF" d="M430.905,205.268l19.337,5.325c0.184,11.96-1.73,22.798-5.745,32.51
			c-4.02,9.717-8.688,18.173-14.013,25.363c-5.325,7.195-11.167,12.8-17.516,16.815c-6.354,4.02-12.8,6.025-19.337,6.025
			c-7.847,0-14.529-2.894-20.039-8.688c-5.513-5.789-9.485-13.732-11.911-23.822c-1.497,1.498-2.991,3.039-4.484,4.625
			c-1.498,1.589-3.18,3.131-5.045,4.624c-8.784,7.475-18.357,13.221-28.726,17.236c-10.369,4.02-20.879,6.025-31.529,6.025
			c-10.65,0-20.507-2.005-29.567-6.025c-9.065-4.016-16.772-9.761-23.121-17.236c-5.981-7.658-10.185-16.347-12.612-26.064
			c-2.43-9.713-2.619-19.898-0.56-30.548c1.865-10.65,5.649-20.831,11.351-30.548c5.697-9.713,12.935-18.309,21.72-25.784
			c8.968-7.659,18.681-13.496,29.147-17.516c10.462-4.015,21.019-6.025,31.669-6.025c10.65,0,20.41,1.962,29.287,5.886
			c8.872,3.923,16.395,9.625,22.561,17.095l1.682-10.93h24.102l-11.771,67.822c-1.498,8.408-2.102,16.071-1.821,22.981
			c0.28,6.915,1.024,12.8,2.242,17.656c1.213,4.861,2.846,8.644,4.905,11.351c2.054,2.71,4.204,4.064,6.446,4.064
			c2.242,0,4.904-1.353,7.988-4.064c3.082-2.706,6.166-6.49,9.249-11.351c3.082-4.857,5.977-10.742,8.688-17.656
			c2.706-6.91,4.808-14.573,6.306-22.981L430.905,205.268z M338.42,250.95c6.166-5.229,11.21-11.254,15.134-18.077
			c3.923-6.818,6.63-13.964,8.127-21.439c1.306-7.47,1.165-14.573-0.42-21.3c-1.589-6.726-4.532-12.795-8.828-18.217
			c-9.157-10.833-21.396-16.254-36.714-16.254c-7.475,0-14.854,1.357-22.14,4.064c-7.287,2.71-14.013,6.774-20.179,12.191
			c-6.354,5.422-11.539,11.491-15.554,18.217c-4.02,6.727-6.683,13.829-7.988,21.3c-1.498,7.475-1.401,14.622,0.281,21.439
			c1.681,6.823,4.764,12.848,9.248,18.077c4.296,5.421,9.573,9.528,15.835,12.331c6.257,2.803,13.124,4.204,20.599,4.204
			c7.471,0,14.854-1.401,22.141-4.204C325.248,260.478,332.066,256.371,338.42,250.95z"/>
		<path fill="#FFFFFF" d="M513.578,211.153c1.305,11.399,0.561,22-2.242,31.809c-2.803,9.809-6.915,18.265-12.332,25.363
			c-5.421,7.103-11.307,12.708-17.656,16.815c-6.354,4.112-12.8,6.166-19.337,6.166c-6.543,0-12.287-2.054-17.236-6.166
			c-4.953-4.107-8.876-9.713-11.771-16.815c-2.898-7.099-4.672-15.554-5.325-25.363c-0.657-9.809,0.044-20.41,2.102-31.809
			l11.771-67.542h24.102l-11.771,67.542c-1.498,8.408-2.102,16.071-1.822,22.982c0.281,6.914,1.121,12.8,2.523,17.656
			c1.401,4.861,3.126,8.644,5.184,11.351c2.054,2.711,4.204,4.064,6.446,4.064c2.242,0,4.857-1.353,7.847-4.064
			c2.987-2.706,6.025-6.49,9.108-11.351c3.082-4.856,5.977-10.742,8.688-17.656c2.707-6.911,5.185-16.72,7.427-29.427
			L513.578,211.153z"/>
		<path fill="#FFFFFF" d="M534.318,141.929c9.152-4.296,19.477-7.658,30.968-10.089c11.491-2.426,23.682-3.643,36.574-3.643
			l-4.765,26.344c-9.717,0-18.734,0.841-27.045,2.523c-8.316,1.681-15.555,3.739-21.72,6.166c-6.166,2.43-11.071,5.045-14.714,7.847
			c-3.644,2.803-5.746,5.421-6.306,7.847l-20.739,112.383h-24.663l27.745-149.938h24.664V141.929z"/>
		<path fill="#FFFFFF" d="M800,219.281l-74.549,62.217L699.948,425.27l-1.962,11.771h-11.77c-6.166,0-11.539-0.657-16.115-1.962
			c-4.58-1.31-8.644-3.039-12.191-5.185c-3.551-2.15-6.682-4.624-9.389-7.427c-2.711-2.803-5.281-5.605-7.707-8.408v-0.281
			c-5.044-7.286-8.547-15.414-10.51-24.382c-1.961-8.968-2.01-18.405-0.14-28.306c1.865-10.649,5.557-20.739,11.069-30.267
			c5.509-9.529,12.753-18.033,21.72-25.504h0.281l40.357-33.631l0.561-2.803c-7.474,6.354-15.462,11.21-23.961,14.573
			c-8.505,3.363-17.052,5.045-25.645,5.045c-9.529,0-18.173-2.054-25.924-6.166c-7.755-4.107-14.341-9.993-19.758-17.656
			c-4.861-7.47-8.175-15.927-9.949-25.363c-1.779-9.432-1.73-19.381,0.14-29.847l12.331-70.064h23.541l-12.331,70.064
			c-1.497,7.663-1.589,14.854-0.281,21.58c1.305,6.726,3.736,12.8,7.287,18.217c7.098,10.278,16.815,15.414,29.146,15.414
			c12.516,0,24.102-5.136,34.753-15.414c5.416-5.417,9.901-11.491,13.452-18.217c3.547-6.726,6.069-13.916,7.568-21.58
			l11.489-65.581h23.543l-18.497,104.536l55.21-45.962L800,219.281z M697.706,304.759l-21.019,17.376
			c-5.983,5.229-10.979,11.21-14.994,17.936c-4.021,6.727-6.682,13.733-7.988,21.019c-1.497,7.471-1.401,14.525,0.281,21.16
			c1.682,6.63,4.668,12.564,8.967,17.797c2.615,2.987,5.137,5.465,7.568,7.427c2.426,1.962,5.229,3.407,8.408,4.344L697.706,304.759
			z"/>
	</g>
	<g>
		<polygon fill="#FFFFFF" points="459.657,80.163 466.785,98.475 485.911,102.985 470.698,115.423 472.319,135.007 455.788,124.381 
			437.664,131.975 442.662,112.97 429.839,98.08 449.458,96.959 		"/>
	</g>
</g>
</svg>
